<svg xmlns="http://www.w3.org/2000/svg" xmlns:xlink="http://www.w3.org/1999/xlink" xmlns:lucid="lucid" width="1247" height="677"><g transform="translate(-284 -146)" lucid:page-tab-id="0_0"><path d="M0 0h3164.47v1127.98H0z" fill-opacity="0"/><path d="M323.68 232.36V195.8c0-4.43 3.58-8 8-8h312v44.56z" stroke="#b2b2b2" stroke-width="2" fill="#e5e6e6"/><path d="M643.68 187.8h320v44.56h-320zM963.68 187.8h518.38c4.42 0 8 3.57 8 8v36.56H963.68z" stroke="#b2b2b2" stroke-width="2" fill="#e5e6e6"/><path d="M643.68 776.1h-312c-4.42 0-8-3.57-8-8V232.37h320zM643.68 232.36h320V776.1h-320zM1490.06 232.36V768.1c0 4.43-3.58 8-8 8H963.68V232.37z" stroke="#b2b2b2" stroke-width="2" fill="none"/><use xlink:href="#a" transform="matrix(1,0,0,1,323.67900687527367,187.7884118775512) translate(132.65337139743625 27.428553840762426)"/><use xlink:href="#b" transform="matrix(1,0,0,1,643.6790068752737,187.7884118775512) translate(59.20422874274064 27.428553840762426)"/><use xlink:href="#c" transform="matrix(1,0,0,1,643.6790068752737,187.7884118775512) translate(154.83186368086717 27.428553840762426)"/><use xlink:href="#d" transform="matrix(1,0,0,1,643.6790068752737,187.7884118775512) translate(213.08463199321199 27.428553840762426)"/><use xlink:href="#e" transform="matrix(1,0,0,1,963.6790068752737,187.7884118775512) translate(118.1076616975084 27.428553840762426)"/><use xlink:href="#f" transform="matrix(1,0,0,1,963.6790068752737,187.7884118775512) translate(174.10150949950375 27.428553840762426)"/><use xlink:href="#g" transform="matrix(1,0,0,1,963.6790068752737,187.7884118775512) translate(256.03871710217913 27.428553840762426)"/><path d="M497.2 264.27c0 9.1-7.7 16.48-17.2 16.48s-17.2-7.38-17.2-16.48c0-9.1 7.7-16.48 17.2-16.48s17.2 7.37 17.2 16.47z" stroke="#000"/><path d="M411.52 332.88c-6.36 0-11.52 5.16-11.52 11.52v34.56c0 6.36 5.16 11.5 11.52 11.5h136.96c6.36 0 11.52-5.14 11.52-11.5V344.4c0-6.36-5.16-11.52-11.52-11.52z" stroke="#000" stroke-opacity="0" fill="#d7f6e6"/><use xlink:href="#h" transform="matrix(1,0,0,1,407.99999999999994,340.88405861843916) translate(5.829943193396176 25.58100393276488)"/><use xlink:href="#i" transform="matrix(1,0,0,1,407.99999999999994,340.88405861843916) translate(68.18249672269593 25.58100393276488)"/><use xlink:href="#j" transform="matrix(1,0,0,1,407.99999999999994,340.88405861843916) translate(87.27001310921626 25.58100393276488)"/><path d="M688.5 296.03c-14.5 0-26.25 11.76-26.25 26.26v78.77c0 14.5 11.75 26.25 26.26 26.25h231.3c14.5 0 26.27-11.75 26.27-26.25V322.3c0-14.5-11.76-26.27-26.26-26.27z" stroke="#000" stroke-opacity="0" fill="#d7f6e6"/><use xlink:href="#k" transform="matrix(1,0,0,1,670.2475175283661,304.0318532627309) translate(102.82372323535012 48.83799213447024)"/><use xlink:href="#l" transform="matrix(1,0,0,1,670.2475175283661,304.0318532627309) translate(3.250512752335709 76.32401573105952)"/><path d="M560.5 361.68h85.36" stroke="#333" fill="none"/><path d="M560.5 362.18h-.5v-1h.5z" stroke="#333" stroke-width=".05" fill="#333"/><path d="M660.63 361.68l-14.27 4.63v-9.26z" stroke="#333" fill="#333"/><path d="M480 281.75v34.75" stroke="#333" fill="none"/><path d="M480 281.25l.5-.06v.56h-1v-.57z" stroke="#333" stroke-width=".05" fill="#333"/><path d="M480 331.27L475.36 317h9.28z" stroke="#333" fill="#333"/><path d="M1053.8 327.2c-7.63 0-13.8 6.18-13.8 13.8v41.36c0 7.62 6.17 13.8 13.8 13.8h132.4c7.63 0 13.8-6.18 13.8-13.8V341c0-7.62-6.17-13.8-13.8-13.8z" stroke="#000" stroke-opacity="0" fill="#d7f6e6"/><use xlink:href="#m" transform="matrix(1,0,0,1,1048,335.20272546956016) translate(32.61609118914638 18.32401573105952)"/><use xlink:href="#n" transform="matrix(1,0,0,1,1048,335.20272546956016) translate(41.49178630887833 45.81003932764881)"/><path d="M946.57 361.68h77.05" stroke="#000" fill="none"/><path d="M946.58 362.18h-.5v-1h.5z" stroke="#000" stroke-width=".05"/><path d="M1038.38 361.68l-14.26 4.63v-9.26z" stroke="#000"/><path d="M704.34 473.03c-23.5 0-42.57 19.06-42.57 42.58v127.73c0 23.5 19.06 42.57 42.57 42.57h198.68c23.5 0 42.57-19.06 42.57-42.57V515.6c0-23.5-19.07-42.57-42.58-42.57z" stroke="#000" stroke-opacity="0" fill="#d7f6e6"/><use xlink:href="#k" transform="matrix(1,0,0,1,669.7688245477666,481.03394109169005) translate(102.82372323535012 48.108956739586304)"/><use xlink:href="#o" transform="matrix(1,0,0,1,669.7688245477666,481.03394109169005) translate(24.214968250197217 75.5949803361756)"/><use xlink:href="#p" transform="matrix(1,0,0,1,669.7688245477666,481.03394109169005) translate(134 103.08100393276487)"/><use xlink:href="#q" transform="matrix(1,0,0,1,669.7688245477666,481.03394109169005) translate(134 130.56702752935416)"/><use xlink:href="#r" transform="matrix(1,0,0,1,669.7688245477666,481.03394109169005) translate(58.34981005475774 158.05305112594343)"/><use xlink:href="#s" transform="matrix(1,0,0,1,669.7688245477666,481.03394109169005) translate(118.15736139918812 158.05305112594343)"/><path d="M804.16 427.82v28.83" stroke="#000" fill="none"/><path d="M804.66 427.84h-1v-.52h1z" stroke="#000" stroke-width=".05"/><path d="M804.16 471.42l-4.64-14.27h9.27z" stroke="#000"/><path d="M662.73 584.9c0-.6.48-1.08 1.1-1.08h281.15c.6 0 1.1.5 1.1 1.1 0 .6-.5 1.08-1.1 1.08H663.82c-.6 0-1.1-.5-1.1-1.1z" stroke="#000" stroke-opacity="0"/><path d="M1072 545c-17.67 0-32 14.32-32 32v124.2c0 17.68 14.33 32 32 32h96c17.67 0 32-14.32 32-32V577c0-17.68-14.33-32-32-32z" stroke="#000" stroke-opacity="0" fill="#d7f6e6"/><g><use xlink:href="#t" transform="matrix(1,0,0,1,1048,552.9908771746173) translate(11.58801063666315 22.365944941291662)"/><use xlink:href="#u" transform="matrix(1,0,0,1,1048,552.9908771746173) translate(58.67055105674664 22.365944941291662)"/><use xlink:href="#v" transform="matrix(1,0,0,1,1048,552.9908771746173) translate(31.279965042089955 49.85196853788095)"/><use xlink:href="#w" transform="matrix(1,0,0,1,1048,552.9908771746173) translate(26.858023745879414 77.33799213447023)"/><use xlink:href="#u" transform="matrix(1,0,0,1,1048,552.9908771746173) translate(35.129280846704894 104.8240157310595)"/><use xlink:href="#x" transform="matrix(1,0,0,1,1048,552.9908771746173) translate(26.85802374587942 132.3100393276488)"/><use xlink:href="#y" transform="matrix(1,0,0,1,1048,552.9908771746173) translate(40.82372323535012 159.7960629242381)"/></g><path d="M946.1 579.47h41.7c2.76 0 5 2.24 5 5v49.63c0 2.76 2.23 5 5 5h25.82" stroke="#000" fill="none"/><path d="M946.1 579.97h-.5v-1h.5z" stroke="#000" stroke-width=".05"/><path d="M1038.38 639.1l-14.26 4.63v-9.27z" stroke="#000"/><path d="M1206.24 275.27h259.04v172.8h-259.04z" stroke="#333" fill-opacity="0"/><path d="M1280.06 318.48h109.58v75.7h-109.58z" stroke="#333" fill="#ff3"/><path d="M1283.95 318.48h103.62l-51.8 36.63z" stroke="#333" fill="#ff3"/><g><use xlink:href="#z" transform="matrix(1,0,0,1,1206.2365497838096,453.08382341485566) translate(42.42328691050014 24.321811749447562)"/><use xlink:href="#A" transform="matrix(1,0,0,1,1206.2365497838096,453.08382341485566) translate(103.64895336100724 24.321811749447562)"/><use xlink:href="#B" transform="matrix(1,0,0,1,1206.2365497838096,453.08382341485566) translate(172.01761423074018 24.321811749447562)"/></g><path d="M1206.24 550.9h259.04v172.8h-259.04z" stroke="#333" fill-opacity="0"/><path d="M1280.06 594.1h109.58v75.7h-109.58z" stroke="#333" fill="#ff3"/><path d="M1283.95 594.1h103.62l-51.8 36.63z" stroke="#333" fill="#ff3"/><g><use xlink:href="#z" transform="matrix(1,0,0,1,1206.2365497838473,728.7038086910277) translate(42.42328691050014 24.321811749447562)"/><use xlink:href="#A" transform="matrix(1,0,0,1,1206.2365497838473,728.7038086910277) translate(103.64895336100724 24.321811749447562)"/><use xlink:href="#B" transform="matrix(1,0,0,1,1206.2365497838473,728.7038086910277) translate(172.01761423074018 24.321811749447562)"/></g><defs><path fill="#333" d="M238-95c0 69-44 99-111 99C63 4 22-25 22-93v-155h51v151c-1 38 19 59 55 60 90 1 49-130 58-211h52v153" id="C"/><path fill="#333" d="M137-138c1-29-70-34-71-4 15 46 118 7 119 86 1 83-164 76-172 9l43-7c4 19 20 25 44 25 33 8 57-30 24-41C81-84 22-81 20-136c-2-80 154-74 161-7" id="D"/><path fill="#333" d="M185-48c-13 30-37 53-82 52C43 2 14-33 14-96s30-98 90-98c62 0 83 45 84 108H66c0 31 8 55 39 56 18 0 30-7 34-22zm-45-69c5-46-57-63-70-21-2 6-4 13-4 21h74" id="E"/><path fill="#333" d="M135-150c-39-12-60 13-60 57V0H25l-1-190h47c2 13-1 29 3 40 6-28 27-53 61-41v41" id="F"/><g id="a"><use transform="matrix(0.06845213667725593,0,0,0.06845213667725593,0,0)" xlink:href="#C"/><use transform="matrix(0.06845213667725593,0,0,0.06845213667725593,17.729103399409286,0)" xlink:href="#D"/><use transform="matrix(0.06845213667725593,0,0,0.06845213667725593,31.419530734860473,0)" xlink:href="#E"/><use transform="matrix(0.06845213667725593,0,0,0.06845213667725593,45.10995807031166,0)" xlink:href="#F"/></g><path fill="#333" d="M182-130c37 4 62 22 62 59C244 23 116-4 24 0v-248c84 5 203-23 205 63 0 31-19 50-47 55zM76-148c40-3 101 13 101-30 0-44-60-28-101-31v61zm0 110c48-3 116 14 116-37 0-48-69-32-116-35v72" id="G"/><path fill="#333" d="M133-34C117-15 103 5 69 4 32 3 11-16 11-54c-1-60 55-63 116-61 1-26-3-47-28-47-18 1-26 9-28 27l-52-2c7-38 36-58 82-57s74 22 75 68l1 82c-1 14 12 18 25 15v27c-30 8-71 5-69-32zm-48 3c29 0 43-24 42-57-32 0-66-3-65 30 0 17 8 27 23 27" id="H"/><path fill="#333" d="M190-63c-7 42-38 67-86 67-59 0-84-38-90-98-12-110 154-137 174-36l-49 2c-2-19-15-32-35-32-30 0-35 28-38 64-6 74 65 87 74 30" id="I"/><path fill="#333" d="M110-194c64 0 96 36 96 99 0 64-35 99-97 99-61 0-95-36-95-99 0-62 34-99 96-99zm-1 164c35 0 45-28 45-65 0-40-10-65-43-65-34 0-45 26-45 65 0 36 10 65 43 65" id="J"/><path fill="#333" d="M135-194c87-1 58 113 63 194h-50c-7-57 23-157-34-157-59 0-34 97-39 157H25l-1-190h47c2 12-1 28 3 38 12-26 28-41 61-42" id="K"/><g id="b"><use transform="matrix(0.06845213667725593,0,0,0.06845213667725593,0,0)" xlink:href="#G"/><use transform="matrix(0.06845213667725593,0,0,0.06845213667725593,17.729103399409286,0)" xlink:href="#E"/><use transform="matrix(0.06845213667725593,0,0,0.06845213667725593,31.419530734860473,0)" xlink:href="#H"/><use transform="matrix(0.06845213667725593,0,0,0.06845213667725593,45.10995807031166,0)" xlink:href="#I"/><use transform="matrix(0.06845213667725593,0,0,0.06845213667725593,58.80038540576285,0)" xlink:href="#J"/><use transform="matrix(0.06845213667725593,0,0,0.06845213667725593,73.7914033380819,0)" xlink:href="#K"/></g><path fill="#333" d="M275 0h-61l-44-196L126 0H64L0-248h53L97-49l45-199h58l43 199 44-199h52" id="L"/><path fill="#333" d="M135-194c52 0 70 43 70 98 0 56-19 99-73 100-30 1-46-15-58-35L72 0H24l1-261h50v104c11-23 29-37 60-37zM114-30c31 0 40-27 40-66 0-37-7-63-39-63s-41 28-41 65c0 36 8 64 40 64" id="M"/><g id="c"><use transform="matrix(0.06845213667725593,0,0,0.06845213667725593,0,0)" xlink:href="#L"/><use transform="matrix(0.06845213667725593,0,0,0.06845213667725593,22.726109376848967,0)" xlink:href="#E"/><use transform="matrix(0.06845213667725593,0,0,0.06845213667725593,36.41653671230016,0)" xlink:href="#M"/></g><path fill="#333" d="M199 0l-22-63H83L61 0H9l90-248h61L250 0h-51zm-33-102l-36-108c-10 38-24 72-36 108h72" id="N"/><path fill="#333" d="M135-194c53 0 70 44 70 98 0 56-19 98-73 100-31 1-45-17-59-34 3 33 2 69 2 105H25l-1-265h48c2 10 0 23 3 31 11-24 29-35 60-35zM114-30c33 0 39-31 40-66 0-38-9-64-40-64-56 0-55 130 0 130" id="O"/><g id="d"><use transform="matrix(0.06845213667725593,0,0,0.06845213667725593,0,0)" xlink:href="#N"/><use transform="matrix(0.06845213667725593,0,0,0.06845213667725593,17.729103399409286,0)" xlink:href="#O"/><use transform="matrix(0.06845213667725593,0,0,0.06845213667725593,32.720121331728336,0)" xlink:href="#O"/></g><path fill="#333" d="M140-251c80 0 125 45 125 126S219 4 139 4C58 4 15-44 15-125s44-126 125-126zm-1 214c52 0 73-35 73-88 0-50-21-86-72-86-52 0-73 35-73 86s22 88 72 88" id="P"/><path fill="#333" d="M136-208V0H84v-208H4v-40h212v40h-80" id="Q"/><g id="e"><use transform="matrix(0.06845213667725593,0,0,0.06845213667725593,0,0)" xlink:href="#P"/><use transform="matrix(0.06845213667725593,0,0,0.06845213667725593,19.16659826963166,0)" xlink:href="#Q"/><use transform="matrix(0.06845213667725593,0,0,0.06845213667725593,34.15761620195071,0)" xlink:href="#Q"/></g><path fill="#333" d="M24-248c93 1 206-16 204 79-1 75-69 88-152 82V0H24v-248zm52 121c47 0 100 7 100-41 0-47-54-39-100-39v80" id="R"/><path fill="#333" d="M25 0v-261h50V0H25" id="S"/><path fill="#333" d="M85 4C-2 5 27-109 22-190h50c7 57-23 150 33 157 60-5 35-97 40-157h50l1 190h-47c-2-12 1-28-3-38-12 25-28 42-61 42" id="T"/><path fill="#333" d="M195-6C206 82 75 100 31 46c-4-6-6-13-8-21l49-6c3 16 16 24 34 25 40 0 42-37 40-79-11 22-30 35-61 35-53 0-70-43-70-97 0-56 18-96 73-97 30 0 46 14 59 34l2-30h47zm-90-29c32 0 41-27 41-63 0-35-9-62-40-62-32 0-39 29-40 63 0 36 9 62 39 62" id="U"/><path fill="#333" d="M25-224v-37h50v37H25zM25 0v-190h50V0H25" id="V"/><g id="f"><use transform="matrix(0.06845213667725593,0,0,0.06845213667725593,0,0)" xlink:href="#R"/><use transform="matrix(0.06845213667725593,0,0,0.06845213667725593,16.428512802541423,0)" xlink:href="#S"/><use transform="matrix(0.06845213667725593,0,0,0.06845213667725593,23.273726470267015,0)" xlink:href="#T"/><use transform="matrix(0.06845213667725593,0,0,0.06845213667725593,38.26474440258606,0)" xlink:href="#U"/><use transform="matrix(0.06845213667725593,0,0,0.06845213667725593,53.25576233490511,0)" xlink:href="#V"/><use transform="matrix(0.06845213667725593,0,0,0.06845213667725593,60.1009760026307,0)" xlink:href="#K"/></g><path fill="#333" d="M76-208v77h127v40H76V0H24v-248h183v40H76" id="W"/><path fill="#333" d="M115-3C79 11 28 4 28-45v-112H4v-33h27l15-45h31v45h36v33H77v99c-1 23 16 31 38 25v30" id="X"/><path fill="#333" d="M123 10C108 53 80 86 19 72V37c35 8 53-11 59-39L3-190h52l48 148c12-52 28-100 44-148h51" id="Y"/><g id="g"><use transform="matrix(0.06845213667725593,0,0,0.06845213667725593,0,0)" xlink:href="#W"/><use transform="matrix(0.06845213667725593,0,0,0.06845213667725593,14.991017932319048,0)" xlink:href="#T"/><use transform="matrix(0.06845213667725593,0,0,0.06845213667725593,29.982035864638096,0)" xlink:href="#K"/><use transform="matrix(0.06845213667725593,0,0,0.06845213667725593,44.973053796957146,0)" xlink:href="#I"/><use transform="matrix(0.06845213667725593,0,0,0.06845213667725593,58.663481132408336,0)" xlink:href="#X"/><use transform="matrix(0.06845213667725593,0,0,0.06845213667725593,66.80928539700179,0)" xlink:href="#V"/><use transform="matrix(0.06845213667725593,0,0,0.06845213667725593,73.65449906472737,0)" xlink:href="#J"/><use transform="matrix(0.06845213667725593,0,0,0.06845213667725593,88.64551699704643,0)" xlink:href="#K"/><use transform="matrix(0.06845213667725593,0,0,0.06845213667725593,103.63653492936548,0)" xlink:href="#H"/><use transform="matrix(0.06845213667725593,0,0,0.06845213667725593,117.32696226481667,0)" xlink:href="#S"/><use transform="matrix(0.06845213667725593,0,0,0.06845213667725593,124.17217593254226,0)" xlink:href="#V"/><use transform="matrix(0.06845213667725593,0,0,0.06845213667725593,131.01738960026785,0)" xlink:href="#X"/><use transform="matrix(0.06845213667725593,0,0,0.06845213667725593,139.1631938648613,0)" xlink:href="#Y"/></g><path fill="#282c33" d="M140-251c81 0 123 46 123 126C263-46 219 4 140 4 59 4 17-45 17-125s42-126 123-126zm0 227c63 0 89-41 89-101s-29-99-89-99c-61 0-89 39-89 99S79-25 140-24" id="Z"/><path fill="#282c33" d="M115-194c55 1 70 41 70 98S169 2 115 4C84 4 66-9 55-30l1 105H24l-1-265h31l2 30c10-21 28-34 59-34zm-8 174c40 0 45-34 45-75s-6-73-45-74c-42 0-51 32-51 76 0 43 10 73 51 73" id="aa"/><path fill="#282c33" d="M100-194c63 0 86 42 84 106H49c0 40 14 67 53 68 26 1 43-12 49-29l28 8c-11 28-37 45-77 45C44 4 14-33 15-96c1-61 26-98 85-98zm52 81c6-60-76-77-97-28-3 7-6 17-6 28h103" id="ab"/><path fill="#282c33" d="M117-194c89-4 53 116 60 194h-32v-121c0-31-8-49-39-48C34-167 62-67 57 0H25l-1-190h30c1 10-1 24 2 32 11-22 29-35 61-36" id="ac"/><g id="h"><use transform="matrix(0.06362505462173444,0,0,0.06362505462173444,0,0)" xlink:href="#Z"/><use transform="matrix(0.06362505462173444,0,0,0.06362505462173444,17.815015294085644,0)" xlink:href="#aa"/><use transform="matrix(0.06362505462173444,0,0,0.06362505462173444,30.54002621843253,0)" xlink:href="#ab"/><use transform="matrix(0.06362505462173444,0,0,0.06362505462173444,43.26503714277942,0)" xlink:href="#ac"/></g><path fill="#282c33" d="M141-36C126-15 110 5 73 4 37 3 15-17 15-53c-1-64 63-63 125-63 3-35-9-54-41-54-24 1-41 7-42 31l-33-3c5-37 33-52 76-52 45 0 72 20 72 64v82c-1 20 7 32 28 27v20c-31 9-61-2-59-35zM48-53c0 20 12 33 32 33 41-3 63-29 60-74-43 2-92-5-92 41" id="ad"/><use transform="matrix(0.06362505462173444,0,0,0.06362505462173444,0,0)" xlink:href="#ad" id="i"/><path fill="#282c33" d="M177-190C167-65 218 103 67 71c-23-6-38-20-44-43l32-5c15 47 100 32 89-28v-30C133-14 115 1 83 1 29 1 15-40 15-95c0-56 16-97 71-98 29-1 48 16 59 35 1-10 0-23 2-32h30zM94-22c36 0 50-32 50-73 0-42-14-75-50-75-39 0-46 34-46 75s6 73 46 73" id="ae"/><g id="j"><use transform="matrix(0.06362505462173444,0,0,0.06362505462173444,0,0)" xlink:href="#aa"/><use transform="matrix(0.06362505462173444,0,0,0.06362505462173444,12.725010924346888,0)" xlink:href="#ad"/><use transform="matrix(0.06362505462173444,0,0,0.06362505462173444,25.450021848693776,0)" xlink:href="#ae"/><use transform="matrix(0.06362505462173444,0,0,0.06362505462173444,38.17503277304066,0)" xlink:href="#ab"/></g><path fill="#333" d="M100-194c63 0 86 42 84 106H49c0 40 14 67 53 68 26 1 43-12 49-29l28 8c-11 28-37 45-77 45C44 4 14-33 15-96c1-61 26-98 85-98zm52 81c6-60-76-77-97-28-3 7-6 17-6 28h103" id="af"/><path fill="#333" d="M108 0H70L1-190h34L89-25l56-165h34" id="ag"/><path fill="#333" d="M117-194c89-4 53 116 60 194h-32v-121c0-31-8-49-39-48C34-167 62-67 57 0H25l-1-190h30c1 10-1 24 2 32 11-22 29-35 61-36" id="ah"/><path fill="#333" d="M59-47c-2 24 18 29 38 22v24C64 9 27 4 27-40v-127H5v-23h24l9-43h21v43h35v23H59v120" id="ai"/><path fill="#333" d="M33-154v-36h34v36H33zM33 0v-36h34V0H33" id="aj"/><g id="k"><use transform="matrix(0.06362505462173444,0,0,0.06362505462173444,0,0)" xlink:href="#af"/><use transform="matrix(0.06362505462173444,0,0,0.06362505462173444,12.725010924346888,0)" xlink:href="#ag"/><use transform="matrix(0.06362505462173444,0,0,0.06362505462173444,24.177520756259085,0)" xlink:href="#af"/><use transform="matrix(0.06362505462173444,0,0,0.06362505462173444,36.902531680605975,0)" xlink:href="#ah"/><use transform="matrix(0.06362505462173444,0,0,0.06362505462173444,49.627542604952865,0)" xlink:href="#ai"/><use transform="matrix(0.06362505462173444,0,0,0.06362505462173444,55.99004806712631,0)" xlink:href="#aj"/></g><path fill="#333" d="M121-226c-27-7-43 5-38 36h38v33H83V0H34v-157H6v-33h28c-9-59 32-81 87-68v32" id="ak"/><path fill="#333" d="M24 0v-248h52v208h133V0H24" id="al"/><path fill="#333" d="M88-194c31-1 46 15 58 34l-1-101h50l1 261h-48c-2-10 0-23-3-31C134-8 116 4 84 4 32 4 16-41 15-95c0-56 19-97 73-99zm17 164c33 0 40-30 41-66 1-37-9-64-41-64s-38 30-39 65c0 43 13 65 39 65" id="am"/><g id="l"><use transform="matrix(0.06362505462173444,0,0,0.06362505462173444,0,0)" xlink:href="#M"/><use transform="matrix(0.06362505462173444,0,0,0.06362505462173444,13.933886962159843,0)" xlink:href="#E"/><use transform="matrix(0.06362505462173444,0,0,0.06362505462173444,26.65889788650673,0)" xlink:href="#ak"/><use transform="matrix(0.06362505462173444,0,0,0.06362505462173444,34.23027938649313,0)" xlink:href="#J"/><use transform="matrix(0.06362505462173444,0,0,0.06362505462173444,48.16416634865297,0)" xlink:href="#F"/><use transform="matrix(0.06362505462173444,0,0,0.06362505462173444,57.07167399569579,0)" xlink:href="#E"/><use transform="matrix(0.06362505462173444,0,0,0.06362505462173444,69.79668492004268,0)" xlink:href="#G"/><use transform="matrix(0.06362505462173444,0,0,0.06362505462173444,86.2755740670719,0)" xlink:href="#E"/><use transform="matrix(0.06362505462173444,0,0,0.06362505462173444,99.00058499141879,0)" xlink:href="#H"/><use transform="matrix(0.06362505462173444,0,0,0.06362505462173444,111.72559591576568,0)" xlink:href="#I"/><use transform="matrix(0.06362505462173444,0,0,0.06362505462173444,124.45060684011257,0)" xlink:href="#J"/><use transform="matrix(0.06362505462173444,0,0,0.06362505462173444,138.3844938022724,0)" xlink:href="#K"/><use transform="matrix(0.06362505462173444,0,0,0.06362505462173444,152.31838076443225,0)" xlink:href="#R"/><use transform="matrix(0.06362505462173444,0,0,0.06362505462173444,167.58839387364853,0)" xlink:href="#H"/><use transform="matrix(0.06362505462173444,0,0,0.06362505462173444,180.31340479799542,0)" xlink:href="#U"/><use transform="matrix(0.06362505462173444,0,0,0.06362505462173444,194.24729176015526,0)" xlink:href="#E"/><use transform="matrix(0.06362505462173444,0,0,0.06362505462173444,206.97230268450215,0)" xlink:href="#al"/><use transform="matrix(0.06362505462173444,0,0,0.06362505462173444,220.906189646662,0)" xlink:href="#J"/><use transform="matrix(0.06362505462173444,0,0,0.06362505462173444,234.84007660882185,0)" xlink:href="#H"/><use transform="matrix(0.06362505462173444,0,0,0.06362505462173444,247.56508753316874,0)" xlink:href="#am"/></g><path fill="#333" d="M212-179c-10-28-35-45-73-45-59 0-87 40-87 99 0 60 29 101 89 101 43 0 62-24 78-52l27 14C228-24 195 4 139 4 59 4 22-46 18-125c-6-104 99-153 187-111 19 9 31 26 39 46" id="an"/><path fill="#333" d="M84 4C-5 8 30-112 23-190h32v120c0 31 7 50 39 49 72-2 45-101 50-169h31l1 190h-30c-1-10 1-25-2-33-11 22-28 36-60 37" id="ao"/><path fill="#333" d="M135-143c-3-34-86-38-87 0 15 53 115 12 119 90S17 21 10-45l28-5c4 36 97 45 98 0-10-56-113-15-118-90-4-57 82-63 122-42 12 7 21 19 24 35" id="ap"/><path fill="#333" d="M100-194c62-1 85 37 85 99 1 63-27 99-86 99S16-35 15-95c0-66 28-99 85-99zM99-20c44 1 53-31 53-75 0-43-8-75-51-75s-53 32-53 75 10 74 51 75" id="aq"/><path fill="#333" d="M210-169c-67 3-38 105-44 169h-31v-121c0-29-5-50-35-48C34-165 62-65 56 0H25l-1-190h30c1 10-1 24 2 32 10-44 99-50 107 0 11-21 27-35 58-36 85-2 47 119 55 194h-31v-121c0-29-5-49-35-48" id="ar"/><g id="m"><use transform="matrix(0.06362505462173444,0,0,0.06362505462173444,0,0)" xlink:href="#an"/><use transform="matrix(0.06362505462173444,0,0,0.06362505462173444,16.47888914702922,0)" xlink:href="#ao"/><use transform="matrix(0.06362505462173444,0,0,0.06362505462173444,29.20390007137611,0)" xlink:href="#ap"/><use transform="matrix(0.06362505462173444,0,0,0.06362505462173444,40.656409903288306,0)" xlink:href="#ai"/><use transform="matrix(0.06362505462173444,0,0,0.06362505462173444,47.01891536546175,0)" xlink:href="#aq"/><use transform="matrix(0.06362505462173444,0,0,0.06362505462173444,59.74392628980864,0)" xlink:href="#ar"/></g><path fill="#333" d="M141-36C126-15 110 5 73 4 37 3 15-17 15-53c-1-64 63-63 125-63 3-35-9-54-41-54-24 1-41 7-42 31l-33-3c5-37 33-52 76-52 45 0 72 20 72 64v82c-1 20 7 32 28 27v20c-31 9-61-2-59-35zM48-53c0 20 12 33 32 33 41-3 63-29 60-74-43 2-92-5-92 41" id="as"/><path fill="#333" d="M96-169c-40 0-48 33-48 73s9 75 48 75c24 0 41-14 43-38l32 2c-6 37-31 61-74 61-59 0-76-41-82-99-10-93 101-131 147-64 4 7 5 14 7 22l-32 3c-4-21-16-35-41-35" id="at"/><path fill="#333" d="M24-231v-30h32v30H24zM24 0v-190h32V0H24" id="au"/><g id="n"><use transform="matrix(0.06362505462173444,0,0,0.06362505462173444,0,0)" xlink:href="#as"/><use transform="matrix(0.06362505462173444,0,0,0.06362505462173444,12.725010924346888,0)" xlink:href="#at"/><use transform="matrix(0.06362505462173444,0,0,0.06362505462173444,24.177520756259085,0)" xlink:href="#ai"/><use transform="matrix(0.06362505462173444,0,0,0.06362505462173444,30.54002621843253,0)" xlink:href="#au"/><use transform="matrix(0.06362505462173444,0,0,0.06362505462173444,35.56640553354955,0)" xlink:href="#aq"/><use transform="matrix(0.06362505462173444,0,0,0.06362505462173444,48.29141645789644,0)" xlink:href="#ah"/></g><g id="o"><use transform="matrix(0.06362505462173444,0,0,0.06362505462173444,0,0)" xlink:href="#J"/><use transform="matrix(0.06362505462173444,0,0,0.06362505462173444,13.933886962159843,0)" xlink:href="#K"/><use transform="matrix(0.06362505462173444,0,0,0.06362505462173444,27.867773924319685,0)" xlink:href="#G"/><use transform="matrix(0.06362505462173444,0,0,0.06362505462173444,44.34666307134891,0)" xlink:href="#E"/><use transform="matrix(0.06362505462173444,0,0,0.06362505462173444,57.0716739956958,0)" xlink:href="#H"/><use transform="matrix(0.06362505462173444,0,0,0.06362505462173444,69.79668492004268,0)" xlink:href="#I"/><use transform="matrix(0.06362505462173444,0,0,0.06362505462173444,82.52169584438957,0)" xlink:href="#J"/><use transform="matrix(0.06362505462173444,0,0,0.06362505462173444,96.45558280654942,0)" xlink:href="#K"/><use transform="matrix(0.06362505462173444,0,0,0.06362505462173444,110.38946976870926,0)" xlink:href="#R"/><use transform="matrix(0.06362505462173444,0,0,0.06362505462173444,125.65948287792553,0)" xlink:href="#H"/><use transform="matrix(0.06362505462173444,0,0,0.06362505462173444,138.3844938022724,0)" xlink:href="#U"/><use transform="matrix(0.06362505462173444,0,0,0.06362505462173444,152.31838076443225,0)" xlink:href="#E"/><use transform="matrix(0.06362505462173444,0,0,0.06362505462173444,165.04339168877914,0)" xlink:href="#al"/><use transform="matrix(0.06362505462173444,0,0,0.06362505462173444,178.97727865093898,0)" xlink:href="#J"/><use transform="matrix(0.06362505462173444,0,0,0.06362505462173444,192.91116561309883,0)" xlink:href="#H"/><use transform="matrix(0.06362505462173444,0,0,0.06362505462173444,205.63617653744572,0)" xlink:href="#am"/></g><path fill="#333" d="M30-248c87 1 191-15 191 75 0 78-77 80-158 76V0H30v-248zm33 125c57 0 124 11 124-50 0-59-68-47-124-48v98" id="av"/><path fill="#333" d="M177-190C167-65 218 103 67 71c-23-6-38-20-44-43l32-5c15 47 100 32 89-28v-30C133-14 115 1 83 1 29 1 15-40 15-95c0-56 16-97 71-98 29-1 48 16 59 35 1-10 0-23 2-32h30zM94-22c36 0 50-32 50-73 0-42-14-75-50-75-39 0-46 34-46 75s6 73 46 73" id="aw"/><g id="r"><use transform="matrix(0.06362505462173444,0,0,0.06362505462173444,0,0)" xlink:href="#av"/><use transform="matrix(0.06362505462173444,0,0,0.06362505462173444,15.270013109216267,0)" xlink:href="#as"/><use transform="matrix(0.06362505462173444,0,0,0.06362505462173444,27.995024033563155,0)" xlink:href="#aw"/><use transform="matrix(0.06362505462173444,0,0,0.06362505462173444,40.720034957910045,0)" xlink:href="#af"/></g><path fill="#333" d="M114-163C36-179 61-72 57 0H25l-1-190h30c1 12-1 29 2 39 6-27 23-49 58-41v29" id="ax"/><path fill="#333" d="M85-194c31 0 48 13 60 33l-1-100h32l1 261h-30c-2-10 0-23-3-31C134-8 116 4 85 4 32 4 16-35 15-94c0-66 23-100 70-100zm9 24c-40 0-46 34-46 75 0 40 6 74 45 74 42 0 51-32 51-76 0-42-9-74-50-73" id="ay"/><g id="s"><use transform="matrix(0.06362505462173444,0,0,0.06362505462173444,0,0)" xlink:href="#ax"/><use transform="matrix(0.06362505462173444,0,0,0.06362505462173444,7.571381499986399,0)" xlink:href="#af"/><use transform="matrix(0.06362505462173444,0,0,0.06362505462173444,20.296392424333288,0)" xlink:href="#ah"/><use transform="matrix(0.06362505462173444,0,0,0.06362505462173444,33.021403348680174,0)" xlink:href="#ay"/><use transform="matrix(0.06362505462173444,0,0,0.06362505462173444,45.746414273027064,0)" xlink:href="#af"/><use transform="matrix(0.06362505462173444,0,0,0.06362505462173444,58.471425197373954,0)" xlink:href="#ax"/><use transform="matrix(0.06362505462173444,0,0,0.06362505462173444,66.04280669736035,0)" xlink:href="#af"/><use transform="matrix(0.06362505462173444,0,0,0.06362505462173444,78.76781762170724,0)" xlink:href="#ay"/></g><path fill="#333" d="M205 0l-28-72H64L36 0H1l101-248h38L239 0h-34zm-38-99l-47-123c-12 45-31 82-46 123h93" id="az"/><g id="t"><use transform="matrix(0.06362505462173444,0,0,0.06362505462173444,0,0)" xlink:href="#az"/><use transform="matrix(0.06362505462173444,0,0,0.06362505462173444,15.270013109216267,0)" xlink:href="#ay"/><use transform="matrix(0.06362505462173444,0,0,0.06362505462173444,27.995024033563155,0)" xlink:href="#ay"/></g><g id="u"><use transform="matrix(0.06362505462173444,0,0,0.06362505462173444,0,0)" xlink:href="#at"/><use transform="matrix(0.06362505462173444,0,0,0.06362505462173444,11.452509831912199,0)" xlink:href="#ao"/><use transform="matrix(0.06362505462173444,0,0,0.06362505462173444,24.177520756259085,0)" xlink:href="#ap"/><use transform="matrix(0.06362505462173444,0,0,0.06362505462173444,35.63003058817128,0)" xlink:href="#ai"/><use transform="matrix(0.06362505462173444,0,0,0.06362505462173444,41.992536050344725,0)" xlink:href="#aq"/><use transform="matrix(0.06362505462173444,0,0,0.06362505462173444,54.717546974691615,0)" xlink:href="#ar"/></g><path fill="#333" d="M115-194c53 0 69 39 70 98 0 66-23 100-70 100C84 3 66-7 56-30L54 0H23l1-261h32v101c10-23 28-34 59-34zm-8 174c40 0 45-34 45-75 0-40-5-75-45-74-42 0-51 32-51 76 0 43 10 73 51 73" id="aA"/><path fill="#333" d="M68-36c1 33-1 63-14 82H32c9-13 17-26 17-46H33v-36h35zM33-154v-36h35v36H33" id="aB"/><g id="v"><use transform="matrix(0.06362505462173444,0,0,0.06362505462173444,0,0)" xlink:href="#aA"/><use transform="matrix(0.06362505462173444,0,0,0.06362505462173444,12.725010924346888,0)" xlink:href="#ao"/><use transform="matrix(0.06362505462173444,0,0,0.06362505462173444,25.450021848693776,0)" xlink:href="#ai"/><use transform="matrix(0.06362505462173444,0,0,0.06362505462173444,31.81252731086722,0)" xlink:href="#ai"/><use transform="matrix(0.06362505462173444,0,0,0.06362505462173444,38.17503277304066,0)" xlink:href="#aq"/><use transform="matrix(0.06362505462173444,0,0,0.06362505462173444,50.90004369738755,0)" xlink:href="#ah"/><use transform="matrix(0.06362505462173444,0,0,0.06362505462173444,63.62505462173444,0)" xlink:href="#ap"/><use transform="matrix(0.06362505462173444,0,0,0.06362505462173444,75.07756445364664,0)" xlink:href="#aB"/></g><path fill="#333" d="M115-194c55 1 70 41 70 98S169 2 115 4C84 4 66-9 55-30l1 105H24l-1-265h31l2 30c10-21 28-34 59-34zm-8 174c40 0 45-34 45-75s-6-73-45-74c-42 0-51 32-51 76 0 43 10 73 51 73" id="aC"/><path fill="#333" d="M24 0v-261h32V0H24" id="aD"/><g id="w"><use transform="matrix(0.06362505462173444,0,0,0.06362505462173444,0,0)" xlink:href="#av"/><use transform="matrix(0.06362505462173444,0,0,0.06362505462173444,15.270013109216267,0)" xlink:href="#aq"/><use transform="matrix(0.06362505462173444,0,0,0.06362505462173444,27.995024033563155,0)" xlink:href="#aC"/><use transform="matrix(0.06362505462173444,0,0,0.06362505462173444,40.720034957910045,0)" xlink:href="#ao"/><use transform="matrix(0.06362505462173444,0,0,0.06362505462173444,53.445045882256935,0)" xlink:href="#aD"/><use transform="matrix(0.06362505462173444,0,0,0.06362505462173444,58.471425197373954,0)" xlink:href="#as"/><use transform="matrix(0.06362505462173444,0,0,0.06362505462173444,71.19643612172084,0)" xlink:href="#ai"/><use transform="matrix(0.06362505462173444,0,0,0.06362505462173444,77.55894158389428,0)" xlink:href="#af"/></g><path fill="#333" d="M68-38c1 34 0 65-14 84H32c9-13 17-26 17-46H33v-38h35" id="aE"/><g id="x"><use transform="matrix(0.06362505462173444,0,0,0.06362505462173444,0,0)" xlink:href="#ap"/><use transform="matrix(0.06362505462173444,0,0,0.06362505462173444,11.452509831912199,0)" xlink:href="#af"/><use transform="matrix(0.06362505462173444,0,0,0.06362505462173444,24.177520756259085,0)" xlink:href="#at"/><use transform="matrix(0.06362505462173444,0,0,0.06362505462173444,35.63003058817128,0)" xlink:href="#ai"/><use transform="matrix(0.06362505462173444,0,0,0.06362505462173444,41.992536050344725,0)" xlink:href="#au"/><use transform="matrix(0.06362505462173444,0,0,0.06362505462173444,47.018915365461744,0)" xlink:href="#aq"/><use transform="matrix(0.06362505462173444,0,0,0.06362505462173444,59.743926289808634,0)" xlink:href="#ah"/><use transform="matrix(0.06362505462173444,0,0,0.06362505462173444,72.46893721415552,0)" xlink:href="#ap"/><use transform="matrix(0.06362505462173444,0,0,0.06362505462173444,83.92144704606771,0)" xlink:href="#aE"/></g><g id="y"><use transform="matrix(0.06362505462173444,0,0,0.06362505462173444,0,0)" xlink:href="#aC"/><use transform="matrix(0.06362505462173444,0,0,0.06362505462173444,12.725010924346888,0)" xlink:href="#as"/><use transform="matrix(0.06362505462173444,0,0,0.06362505462173444,25.450021848693776,0)" xlink:href="#aw"/><use transform="matrix(0.06362505462173444,0,0,0.06362505462173444,38.17503277304066,0)" xlink:href="#af"/><use transform="matrix(0.06362505462173444,0,0,0.06362505462173444,50.90004369738755,0)" xlink:href="#ap"/></g><path fill="#666" d="M30 0v-248h187v28H63v79h144v27H63v87h162V0H30" id="aF"/><path fill="#666" d="M108 0H70L1-190h34L89-25l56-165h34" id="aG"/><path fill="#666" d="M100-194c63 0 86 42 84 106H49c0 40 14 67 53 68 26 1 43-12 49-29l28 8c-11 28-37 45-77 45C44 4 14-33 15-96c1-61 26-98 85-98zm52 81c6-60-76-77-97-28-3 7-6 17-6 28h103" id="aH"/><path fill="#666" d="M117-194c89-4 53 116 60 194h-32v-121c0-31-8-49-39-48C34-167 62-67 57 0H25l-1-190h30c1 10-1 24 2 32 11-22 29-35 61-36" id="aI"/><path fill="#666" d="M59-47c-2 24 18 29 38 22v24C64 9 27 4 27-40v-127H5v-23h24l9-43h21v43h35v23H59v120" id="aJ"/><g id="z"><use transform="matrix(0.060025163186771674,0,0,0.060025163186771674,0,0)" xlink:href="#aF"/><use transform="matrix(0.060025163186771674,0,0,0.060025163186771674,14.406039164825202,0)" xlink:href="#aG"/><use transform="matrix(0.060025163186771674,0,0,0.060025163186771674,25.210568538444104,0)" xlink:href="#aH"/><use transform="matrix(0.060025163186771674,0,0,0.060025163186771674,37.21560117579844,0)" xlink:href="#aI"/><use transform="matrix(0.060025163186771674,0,0,0.060025163186771674,49.22063381315277,0)" xlink:href="#aJ"/></g><path fill="#666" d="M140-251c81 0 123 46 123 126C263-46 219 4 140 4 59 4 17-45 17-125s42-126 123-126zm0 227c63 0 89-41 89-101s-29-99-89-99c-61 0-89 39-89 99S79-25 140-24" id="aK"/><path fill="#666" d="M115-194c53 0 69 39 70 98 0 66-23 100-70 100C84 3 66-7 56-30L54 0H23l1-261h32v101c10-23 28-34 59-34zm-8 174c40 0 45-34 45-75 0-40-5-75-45-74-42 0-51 32-51 76 0 43 10 73 51 73" id="aL"/><path fill="#666" d="M24-231v-30h32v30H24zM-9 49c24 4 33-6 33-30v-209h32V24c2 40-23 58-65 49V49" id="aM"/><path fill="#666" d="M96-169c-40 0-48 33-48 73s9 75 48 75c24 0 41-14 43-38l32 2c-6 37-31 61-74 61-59 0-76-41-82-99-10-93 101-131 147-64 4 7 5 14 7 22l-32 3c-4-21-16-35-41-35" id="aN"/><g id="A"><use transform="matrix(0.060025163186771674,0,0,0.060025163186771674,0,0)" xlink:href="#aK"/><use transform="matrix(0.060025163186771674,0,0,0.060025163186771674,16.807045692296068,0)" xlink:href="#aL"/><use transform="matrix(0.060025163186771674,0,0,0.060025163186771674,28.812078329650404,0)" xlink:href="#aM"/><use transform="matrix(0.060025163186771674,0,0,0.060025163186771674,33.554066221405364,0)" xlink:href="#aH"/><use transform="matrix(0.060025163186771674,0,0,0.060025163186771674,45.5590988587597,0)" xlink:href="#aN"/><use transform="matrix(0.060025163186771674,0,0,0.060025163186771674,56.3636282323786,0)" xlink:href="#aJ"/></g><path fill="#666" d="M30-248c118-7 216 8 213 122C240-48 200 0 122 0H30v-248zM63-27c89 8 146-16 146-99s-60-101-146-95v194" id="aO"/><path fill="#666" d="M141-36C126-15 110 5 73 4 37 3 15-17 15-53c-1-64 63-63 125-63 3-35-9-54-41-54-24 1-41 7-42 31l-33-3c5-37 33-52 76-52 45 0 72 20 72 64v82c-1 20 7 32 28 27v20c-31 9-61-2-59-35zM48-53c0 20 12 33 32 33 41-3 63-29 60-74-43 2-92-5-92 41" id="aP"/><g id="B"><use transform="matrix(0.060025163186771674,0,0,0.060025163186771674,0,0)" xlink:href="#aO"/><use transform="matrix(0.060025163186771674,0,0,0.060025163186771674,15.546517265373863,0)" xlink:href="#aP"/><use transform="matrix(0.060025163186771674,0,0,0.060025163186771674,27.551549902728198,0)" xlink:href="#aJ"/><use transform="matrix(0.060025163186771674,0,0,0.060025163186771674,33.554066221405364,0)" xlink:href="#aP"/></g></defs></g></svg>