<svg xmlns="http://www.w3.org/2000/svg" xmlns:xlink="http://www.w3.org/1999/xlink" xmlns:lucid="lucid" width="1417" height="1366"><g transform="translate(-101 -157)" lucid:page-tab-id="0_0"><path d="M331.12 233.78V197.2c0-4.4 3.6-8 8-8h312v44.58zM651.12 189.2h320v44.58h-320z" stroke="#b2b2b2" stroke-width="2" fill="#e5e6e6"/><path d="M971.12 189.2h312c4.42 0 8 3.6 8 8v36.58h-320z" stroke="#b2b2b2" stroke-width="2" fill="#e5e6e6"/><path d="M651.12 1490.06h-312c-4.4 0-8-3.58-8-8V233.78h320zM651.12 233.78h320v1256.28h-320z" stroke="#b2b2b2" stroke-width="2" fill="none"/><path d="M1291.12 233.78v1248.28c0 4.42-3.58 8-8 8h-312V233.78z" stroke="#b2b2b2" stroke-width="2" fill="none"/><use xlink:href="#a" transform="matrix(1,0,0,1,331.12375876418304,189.21357643667602) translate(132.65337139743625 27.428553840762426)"/><use xlink:href="#b" transform="matrix(1,0,0,1,651.1237587641831,189.21357643667602) translate(63.00332232832834 27.428553840762426)"/><use xlink:href="#c" transform="matrix(1,0,0,1,651.1237587641831,189.21357643667602) translate(158.63095726645489 27.428553840762426)"/><use xlink:href="#d" transform="matrix(1,0,0,1,651.1237587641831,189.21357643667602) translate(213.32421447158237 27.428553840762426)"/><use xlink:href="#e" transform="matrix(1,0,0,1,971.1237587641831,189.21357643667602) translate(94.45707913152745 27.428553840762426)"/><use xlink:href="#f" transform="matrix(1,0,0,1,971.1237587641831,189.21357643667602) translate(150.4509269335228 27.428553840762426)"/><path d="M504.65 300.3c0 9.1-7.7 16.48-17.2 16.48s-17.2-7.38-17.2-16.48c0-9.1 7.7-16.48 17.2-16.48s17.2 7.38 17.2 16.48z" stroke="#000"/><path d="M418.96 368.92c-6.36 0-11.52 5.15-11.52 11.5V415c0 6.35 5.16 11.5 11.52 11.5h136.97c6.36 0 11.5-5.15 11.5-11.5v-34.57c0-6.36-5.14-11.5-11.5-11.5z" stroke="#000" stroke-opacity="0" fill="#d7f6e6"/><use xlink:href="#g" transform="matrix(1,0,0,1,415.4447518889093,376.91601139590233) translate(5.829943193396176 25.58100393276488)"/><use xlink:href="#h" transform="matrix(1,0,0,1,415.4447518889093,376.91601139590233) translate(68.18249672269593 25.58100393276488)"/><use xlink:href="#i" transform="matrix(1,0,0,1,415.4447518889093,376.91601139590233) translate(87.27001310921626 25.58100393276488)"/><path d="M695.95 332.06c-14.5 0-26.26 11.76-26.26 26.26v78.78c0 14.5 11.75 26.26 26.25 26.26h231.3c14.5 0 26.26-11.76 26.26-26.26v-78.78c0-14.5-11.74-26.26-26.25-26.26z" stroke="#000" stroke-opacity="0" fill="#d7f6e6"/><use xlink:href="#j" transform="matrix(1,0,0,1,677.6922694172754,340.0638060401943) translate(99.00621995804606 21.35196853788096)"/><use xlink:href="#k" transform="matrix(1,0,0,1,677.6922694172754,340.0638060401943) translate(3.250512752335709 48.83799213447024)"/><use xlink:href="#l" transform="matrix(1,0,0,1,677.6922694172754,340.0638060401943) translate(8.086016903587534 76.32401573105953)"/><use xlink:href="#m" transform="matrix(1,0,0,1,677.6922694172754,340.0638060401943) translate(65.34856606314852 76.32401573105953)"/><use xlink:href="#n" transform="matrix(1,0,0,1,677.6922694172754,340.0638060401943) translate(130.18249672269593 103.81003932764881)"/><path d="M567.94 397.7h85.37" stroke="#333" fill="none"/><path d="M567.96 398.2h-.52v-1h.52z" stroke="#333" stroke-width=".05" fill="#333"/><path d="M668.07 397.7l-14.26 4.65v-9.27z" stroke="#333" fill="#333"/><path d="M487.44 317.78v34.75" stroke="#333" fill="none"/><path d="M487.44 317.28l.5-.06v.58h-1v-.58z" stroke="#333" stroke-width=".05" fill="#333"/><path d="M487.44 367.3l-4.63-14.27h9.28z" stroke="#333" fill="#333"/><path d="M1061.24 363.23c-7.62 0-13.8 6.18-13.8 13.8v41.37c0 7.6 6.18 13.8 13.8 13.8h132.4c7.63 0 13.8-6.2 13.8-13.8v-41.38c0-7.6-6.17-13.8-13.8-13.8z" stroke="#000" stroke-opacity="0" fill="#d7f6e6"/><use xlink:href="#o" transform="matrix(1,0,0,1,1055.4447518889092,371.2346782470235) translate(32.61609118914638 18.32401573105952)"/><use xlink:href="#p" transform="matrix(1,0,0,1,1055.4447518889092,371.2346782470235) translate(41.49178630887833 45.81003932764881)"/><path d="M954 397.7h77.06" stroke="#000" fill="none"/><path d="M954.03 398.2h-.52v-1h.53z" stroke="#000" stroke-width=".05"/><path d="M1045.83 397.7l-14.27 4.65v-9.27z" stroke="#000"/><path d="M711.8 509.07c-23.53 0-42.6 19.06-42.6 42.57v127.72c0 23.5 19.07 42.57 42.6 42.57h198.66c23.5 0 42.57-19.06 42.57-42.57V551.64c0-23.5-19.06-42.57-42.57-42.57z" stroke="#000" stroke-opacity="0" fill="#d7f6e6"/><use xlink:href="#j" transform="matrix(1,0,0,1,677.2135764366762,517.0658938691532) translate(99.00621995804606 34.36594494129166)"/><use xlink:href="#q" transform="matrix(1,0,0,1,677.2135764366762,517.0658938691532) translate(24.214968250197217 61.85196853788095)"/><use xlink:href="#l" transform="matrix(1,0,0,1,677.2135764366762,517.0658938691532) translate(8.086016903587534 89.33799213447023)"/><use xlink:href="#m" transform="matrix(1,0,0,1,677.2135764366762,517.0658938691532) translate(65.34856606314852 89.33799213447023)"/><use xlink:href="#r" transform="matrix(1,0,0,1,677.2135764366762,517.0658938691532) translate(130.18249672269593 116.8240157310595)"/><use xlink:href="#s" transform="matrix(1,0,0,1,677.2135764366762,517.0658938691532) translate(134 144.3100393276488)"/><use xlink:href="#t" transform="matrix(1,0,0,1,677.2135764366762,517.0658938691532) translate(58.34981005475774 171.7960629242381)"/><use xlink:href="#u" transform="matrix(1,0,0,1,677.2135764366762,517.0658938691532) translate(118.15736139918812 171.7960629242381)"/><path d="M811.6 463.86V492.7" stroke="#000" fill="none"/><path d="M812.1 463.87h-1v-.5h1z" stroke="#000" stroke-width=".05"/><path d="M811.6 507.45l-4.63-14.27h9.27z" stroke="#000"/><path d="M669.7 652.4c0-.6.48-1.1 1.08-1.1h281.16c.6 0 1.1.5 1.1 1.1 0 .6-.5 1.1-1.1 1.1H670.78c-.6 0-1.1-.5-1.1-1.1z" stroke="#000" stroke-opacity="0"/><path d="M422.85 1216.5c-8.5 0-15.4 6.88-15.4 15.4v46.2c0 8.52 6.9 15.42 15.4 15.42h129.2c8.5 0 15.4-6.9 15.4-15.4v-46.23c0-8.52-6.9-15.4-15.4-15.4z" stroke="#000" stroke-opacity="0" fill="#d7f6e6"/><use xlink:href="#v" transform="matrix(1,0,0,1,415.4447518889093,1224.48642188338) translate(7.229694395074347 21.837992134470237)"/><use xlink:href="#w" transform="matrix(1,0,0,1,415.4447518889093,1224.48642188338) translate(63.02886729833544 21.837992134470237)"/><use xlink:href="#x" transform="matrix(1,0,0,1,415.4447518889093,1224.48642188338) translate(40.187472689132775 49.32401573105952)"/><path d="M567.94 1255H634.74" stroke="#000" fill="none"/><path d="M567.96 1255.5h-.52v-1h.52z" stroke="#000" stroke-width=".05"/><path d="M649.5 1255l-14.26 4.64v-9.27z" stroke="#000"/><path d="M708.07 1112.64c-31.45 0-56.95 25.5-56.95 56.94v170.84c0 31.45 25.5 56.95 56.95 56.95h206.1c31.46 0 56.95-25.5 56.95-56.95v-170.84c0-31.45-25.5-56.94-56.94-56.94z" stroke="#000" stroke-opacity="0" fill="#d7f6e6"/><use xlink:href="#y" transform="matrix(1,0,0,1,659.1237587641831,1120.6353215706843) translate(117.00621995804606 42.87992134470237)"/><use xlink:href="#z" transform="matrix(1,0,0,1,659.1237587641831,1120.6353215706843) translate(-57.10374201433012 70.36594494129166)"/><use xlink:href="#A" transform="matrix(1,0,0,1,659.1237587641831,1120.6353215706843) translate(17.21032178385559 97.85196853788094)"/><use xlink:href="#B" transform="matrix(1,0,0,1,659.1237587641831,1120.6353215706843) translate(74.47287094341658 97.85196853788094)"/><use xlink:href="#C" transform="matrix(1,0,0,1,659.1237587641831,1120.6353215706843) translate(22.427576262837817 125.33799213447021)"/><use xlink:href="#r" transform="matrix(1,0,0,1,659.1237587641831,1120.6353215706843) translate(148.18249672269593 152.82401573105952)"/><use xlink:href="#D" transform="matrix(1,0,0,1,659.1237587641831,1120.6353215706843) translate(152 180.3100393276488)"/><use xlink:href="#D" transform="matrix(1,0,0,1,659.1237587641831,1120.6353215706843) translate(152 207.7960629242381)"/><use xlink:href="#E" transform="matrix(1,0,0,1,659.1237587641831,1120.6353215706843) translate(80.80356387827916 235.2820865208274)"/><use xlink:href="#F" transform="matrix(1,0,0,1,659.1237587641831,1120.6353215706843) translate(153.33612614705643 235.2820865208274)"/><path d="M670.17 1319.76c0-.86.7-1.56 1.56-1.56h280.22c.86 0 1.56.7 1.56 1.56 0 .86-.7 1.56-1.55 1.56H671.73c-.86 0-1.56-.7-1.56-1.56z" stroke="#000" stroke-opacity="0"/><path d="M1061.24 581.02c-7.62 0-13.8 6.18-13.8 13.8v41.36c0 7.62 6.18 13.8 13.8 13.8h132.4c7.63 0 13.8-6.18 13.8-13.8V594.8c0-7.6-6.17-13.78-13.8-13.78z" stroke="#000" stroke-opacity="0" fill="#d7f6e6"/><g><use xlink:href="#G" transform="matrix(1,0,0,1,1055.4447518889092,589.0228299520804) translate(11.58801063666315 18.32401573105952)"/><use xlink:href="#H" transform="matrix(1,0,0,1,1055.4447518889092,589.0228299520804) translate(58.67055105674664 18.32401573105952)"/><use xlink:href="#I" transform="matrix(1,0,0,1,1055.4447518889092,589.0228299520804) translate(40.187472689132775 45.81003932764881)"/></g><path d="M953.53 615.5h77.53" stroke="#000" fill="none"/><path d="M953.55 616h-.52v-1h.52z" stroke="#000" stroke-width=".05"/><path d="M1045.83 615.5l-14.27 4.63v-9.27z" stroke="#000"/><path d="M1065.9 1208.9c-10.2 0-18.46 8.25-18.46 18.43v55.34c0 10.2 8.26 18.45 18.45 18.45H1189c10.2 0 18.44-8.26 18.44-18.45v-55.34c0-10.18-8.25-18.44-18.44-18.44z" stroke="#000" stroke-opacity="0" fill="#d7f6e6"/><g><use xlink:href="#J" transform="matrix(1,0,0,1,1055.4447518889092,1216.8869132420714) translate(32.61609118914638 29.337992134470237)"/><use xlink:href="#K" transform="matrix(1,0,0,1,1055.4447518889092,1216.8869132420714) translate(6.498006266924392 56.82401573105952)"/><use xlink:href="#L" transform="matrix(1,0,0,1,1055.4447518889092,1216.8869132420714) translate(76.48556635083227 56.82401573105952)"/></g><path d="M971.62 1255h37.47c.1 0 .18.1.18.2s.1.2.2.2h21.58" stroke="#000" fill="none"/><path d="M971.64 1255.5h-.52v-1h.52z" stroke="#000" stroke-width=".05"/><path d="M1045.83 1255.4l-14.27 4.62v-9.27z" stroke="#000"/><path d="M708.07 770.12c-31.45 0-56.95 25.5-56.95 56.95V997.9c0 31.46 25.5 56.95 56.95 56.95h206.1c31.46 0 56.95-25.5 56.95-56.94V827.08c0-31.45-25.5-56.95-56.94-56.95z" stroke="#000" stroke-opacity="0" fill="#d7f6e6"/><g><use xlink:href="#j" transform="matrix(1,0,0,1,659.1237587641831,778.1190285138175) translate(117.00621995804606 42.87992134470237)"/><use xlink:href="#M" transform="matrix(1,0,0,1,659.1237587641831,778.1190285138175) translate(-12.916141579535633 70.36594494129166)"/><use xlink:href="#l" transform="matrix(1,0,0,1,659.1237587641831,778.1190285138175) translate(17.878384857383793 97.85196853788094)"/><use xlink:href="#N" transform="matrix(1,0,0,1,659.1237587641831,778.1190285138175) translate(75.14093401694478 97.85196853788094)"/><use xlink:href="#O" transform="matrix(1,0,0,1,659.1237587641831,778.1190285138175) translate(-3.05425811316681 125.33799213447021)"/><use xlink:href="#P" transform="matrix(1,0,0,1,659.1237587641831,778.1190285138175) translate(31.2714588552589 152.82401573105952)"/><use xlink:href="#r" transform="matrix(1,0,0,1,659.1237587641831,778.1190285138175) translate(148.18249672269593 180.3100393276488)"/><use xlink:href="#s" transform="matrix(1,0,0,1,659.1237587641831,778.1190285138175) translate(152 207.7960629242381)"/><use xlink:href="#Q" transform="matrix(1,0,0,1,659.1237587641831,778.1190285138175) translate(28.694644143078648 235.2820865208274)"/><use xlink:href="#R" transform="matrix(1,0,0,1,659.1237587641831,778.1190285138175) translate(113.82496722695933 235.2820865208274)"/><use xlink:href="#u" transform="matrix(1,0,0,1,659.1237587641831,778.1190285138175) translate(183.8125273108672 235.2820865208274)"/></g><path d="M669.2 983.2c0-.6.5-1.1 1.1-1.1h281.16c.6 0 1.1.5 1.1 1.1 0 .6-.5 1.08-1.1 1.08H670.3c-.6 0-1.1-.5-1.1-1.1z" stroke="#000" stroke-opacity="0"/><path d="M1127.44 650.47V907.5c0 2.75-2.23 5-5 5H987.5" stroke="#000" fill="none"/><path d="M1127.94 650.5h-1v-.53h1z" stroke="#000" stroke-width=".05"/><path d="M972.74 912.5l14.27-4.65v9.27z" stroke="#000"/><path d="M487.44 427v773.1" stroke="#000" fill="none"/><path d="M487.94 427.02h-1v-.52h1z" stroke="#000" stroke-width=".05"/><path d="M487.44 1214.87l-4.63-14.27h9.28z" stroke="#000"/><path d="M811.12 1055.35v40.9" stroke="#000" fill="none"/><path d="M811.62 1055.37h-1v-.52h1z" stroke="#000" stroke-width=".05"/><path d="M811.12 1111.02l-4.63-14.27h9.26z" stroke="#000"/><defs><path fill="#333" d="M238-95c0 69-44 99-111 99C63 4 22-25 22-93v-155h51v151c-1 38 19 59 55 60 90 1 49-130 58-211h52v153" id="S"/><path fill="#333" d="M137-138c1-29-70-34-71-4 15 46 118 7 119 86 1 83-164 76-172 9l43-7c4 19 20 25 44 25 33 8 57-30 24-41C81-84 22-81 20-136c-2-80 154-74 161-7" id="T"/><path fill="#333" d="M185-48c-13 30-37 53-82 52C43 2 14-33 14-96s30-98 90-98c62 0 83 45 84 108H66c0 31 8 55 39 56 18 0 30-7 34-22zm-45-69c5-46-57-63-70-21-2 6-4 13-4 21h74" id="U"/><path fill="#333" d="M135-150c-39-12-60 13-60 57V0H25l-1-190h47c2 13-1 29 3 40 6-28 27-53 61-41v41" id="V"/><g id="a"><use transform="matrix(0.06845213667725593,0,0,0.06845213667725593,0,0)" xlink:href="#S"/><use transform="matrix(0.06845213667725593,0,0,0.06845213667725593,17.729103399409286,0)" xlink:href="#T"/><use transform="matrix(0.06845213667725593,0,0,0.06845213667725593,31.419530734860473,0)" xlink:href="#U"/><use transform="matrix(0.06845213667725593,0,0,0.06845213667725593,45.10995807031166,0)" xlink:href="#V"/></g><path fill="#333" d="M182-130c37 4 62 22 62 59C244 23 116-4 24 0v-248c84 5 203-23 205 63 0 31-19 50-47 55zM76-148c40-3 101 13 101-30 0-44-60-28-101-31v61zm0 110c48-3 116 14 116-37 0-48-69-32-116-35v72" id="W"/><path fill="#333" d="M133-34C117-15 103 5 69 4 32 3 11-16 11-54c-1-60 55-63 116-61 1-26-3-47-28-47-18 1-26 9-28 27l-52-2c7-38 36-58 82-57s74 22 75 68l1 82c-1 14 12 18 25 15v27c-30 8-71 5-69-32zm-48 3c29 0 43-24 42-57-32 0-66-3-65 30 0 17 8 27 23 27" id="X"/><path fill="#333" d="M190-63c-7 42-38 67-86 67-59 0-84-38-90-98-12-110 154-137 174-36l-49 2c-2-19-15-32-35-32-30 0-35 28-38 64-6 74 65 87 74 30" id="Y"/><path fill="#333" d="M110-194c64 0 96 36 96 99 0 64-35 99-97 99-61 0-95-36-95-99 0-62 34-99 96-99zm-1 164c35 0 45-28 45-65 0-40-10-65-43-65-34 0-45 26-45 65 0 36 10 65 43 65" id="Z"/><path fill="#333" d="M135-194c87-1 58 113 63 194h-50c-7-57 23-157-34-157-59 0-34 97-39 157H25l-1-190h47c2 12-1 28 3 38 12-26 28-41 61-42" id="aa"/><g id="b"><use transform="matrix(0.06845213667725593,0,0,0.06845213667725593,0,0)" xlink:href="#W"/><use transform="matrix(0.06845213667725593,0,0,0.06845213667725593,17.729103399409286,0)" xlink:href="#U"/><use transform="matrix(0.06845213667725593,0,0,0.06845213667725593,31.419530734860473,0)" xlink:href="#X"/><use transform="matrix(0.06845213667725593,0,0,0.06845213667725593,45.10995807031166,0)" xlink:href="#Y"/><use transform="matrix(0.06845213667725593,0,0,0.06845213667725593,58.80038540576285,0)" xlink:href="#Z"/><use transform="matrix(0.06845213667725593,0,0,0.06845213667725593,73.7914033380819,0)" xlink:href="#aa"/></g><path fill="#333" d="M231 0h-52l-39-155L100 0H48L-1-190h46L77-45c9-52 24-97 36-145h53l37 145 32-145h46" id="ab"/><path fill="#333" d="M135-194c52 0 70 43 70 98 0 56-19 99-73 100-30 1-46-15-58-35L72 0H24l1-261h50v104c11-23 29-37 60-37zM114-30c31 0 40-27 40-66 0-37-7-63-39-63s-41 28-41 65c0 36 8 64 40 64" id="ac"/><g id="c"><use transform="matrix(0.06845213667725593,0,0,0.06845213667725593,0,0)" xlink:href="#ab"/><use transform="matrix(0.06845213667725593,0,0,0.06845213667725593,19.16659826963166,0)" xlink:href="#U"/><use transform="matrix(0.06845213667725593,0,0,0.06845213667725593,32.857025605082846,0)" xlink:href="#ac"/></g><path fill="#333" d="M135-194c53 0 70 44 70 98 0 56-19 98-73 100-31 1-45-17-59-34 3 33 2 69 2 105H25l-1-265h48c2 10 0 23 3 31 11-24 29-35 60-35zM114-30c33 0 39-31 40-66 0-38-9-64-40-64-56 0-55 130 0 130" id="ad"/><g id="d"><use transform="matrix(0.06845213667725593,0,0,0.06845213667725593,0,0)" xlink:href="#X"/><use transform="matrix(0.06845213667725593,0,0,0.06845213667725593,13.690427335451187,0)" xlink:href="#ad"/><use transform="matrix(0.06845213667725593,0,0,0.06845213667725593,28.681445267770236,0)" xlink:href="#ad"/></g><path fill="#333" d="M140-251c80 0 125 45 125 126S219 4 139 4C58 4 15-44 15-125s44-126 125-126zm-1 214c52 0 73-35 73-88 0-50-21-86-72-86-52 0-73 35-73 86s22 88 72 88" id="ae"/><path fill="#333" d="M136-208V0H84v-208H4v-40h212v40h-80" id="af"/><g id="e"><use transform="matrix(0.06845213667725593,0,0,0.06845213667725593,0,0)" xlink:href="#ae"/><use transform="matrix(0.06845213667725593,0,0,0.06845213667725593,19.16659826963166,0)" xlink:href="#af"/><use transform="matrix(0.06845213667725593,0,0,0.06845213667725593,34.15761620195071,0)" xlink:href="#af"/></g><path fill="#333" d="M24-248c93 1 206-16 204 79-1 75-69 88-152 82V0H24v-248zm52 121c47 0 100 7 100-41 0-47-54-39-100-39v80" id="ag"/><path fill="#333" d="M25 0v-261h50V0H25" id="ah"/><path fill="#333" d="M85 4C-2 5 27-109 22-190h50c7 57-23 150 33 157 60-5 35-97 40-157h50l1 190h-47c-2-12 1-28-3-38-12 25-28 42-61 42" id="ai"/><path fill="#333" d="M195-6C206 82 75 100 31 46c-4-6-6-13-8-21l49-6c3 16 16 24 34 25 40 0 42-37 40-79-11 22-30 35-61 35-53 0-70-43-70-97 0-56 18-96 73-97 30 0 46 14 59 34l2-30h47zm-90-29c32 0 41-27 41-63 0-35-9-62-40-62-32 0-39 29-40 63 0 36 9 62 39 62" id="aj"/><path fill="#333" d="M25-224v-37h50v37H25zM25 0v-190h50V0H25" id="ak"/><g id="f"><use transform="matrix(0.06845213667725593,0,0,0.06845213667725593,0,0)" xlink:href="#ag"/><use transform="matrix(0.06845213667725593,0,0,0.06845213667725593,16.428512802541423,0)" xlink:href="#ah"/><use transform="matrix(0.06845213667725593,0,0,0.06845213667725593,23.273726470267015,0)" xlink:href="#ai"/><use transform="matrix(0.06845213667725593,0,0,0.06845213667725593,38.26474440258606,0)" xlink:href="#aj"/><use transform="matrix(0.06845213667725593,0,0,0.06845213667725593,53.25576233490511,0)" xlink:href="#ak"/><use transform="matrix(0.06845213667725593,0,0,0.06845213667725593,60.1009760026307,0)" xlink:href="#aa"/></g><path fill="#282c33" d="M140-251c81 0 123 46 123 126C263-46 219 4 140 4 59 4 17-45 17-125s42-126 123-126zm0 227c63 0 89-41 89-101s-29-99-89-99c-61 0-89 39-89 99S79-25 140-24" id="al"/><path fill="#282c33" d="M115-194c55 1 70 41 70 98S169 2 115 4C84 4 66-9 55-30l1 105H24l-1-265h31l2 30c10-21 28-34 59-34zm-8 174c40 0 45-34 45-75s-6-73-45-74c-42 0-51 32-51 76 0 43 10 73 51 73" id="am"/><path fill="#282c33" d="M100-194c63 0 86 42 84 106H49c0 40 14 67 53 68 26 1 43-12 49-29l28 8c-11 28-37 45-77 45C44 4 14-33 15-96c1-61 26-98 85-98zm52 81c6-60-76-77-97-28-3 7-6 17-6 28h103" id="an"/><path fill="#282c33" d="M117-194c89-4 53 116 60 194h-32v-121c0-31-8-49-39-48C34-167 62-67 57 0H25l-1-190h30c1 10-1 24 2 32 11-22 29-35 61-36" id="ao"/><g id="g"><use transform="matrix(0.06362505462173444,0,0,0.06362505462173444,0,0)" xlink:href="#al"/><use transform="matrix(0.06362505462173444,0,0,0.06362505462173444,17.815015294085644,0)" xlink:href="#am"/><use transform="matrix(0.06362505462173444,0,0,0.06362505462173444,30.54002621843253,0)" xlink:href="#an"/><use transform="matrix(0.06362505462173444,0,0,0.06362505462173444,43.26503714277942,0)" xlink:href="#ao"/></g><path fill="#282c33" d="M141-36C126-15 110 5 73 4 37 3 15-17 15-53c-1-64 63-63 125-63 3-35-9-54-41-54-24 1-41 7-42 31l-33-3c5-37 33-52 76-52 45 0 72 20 72 64v82c-1 20 7 32 28 27v20c-31 9-61-2-59-35zM48-53c0 20 12 33 32 33 41-3 63-29 60-74-43 2-92-5-92 41" id="ap"/><use transform="matrix(0.06362505462173444,0,0,0.06362505462173444,0,0)" xlink:href="#ap" id="h"/><path fill="#282c33" d="M177-190C167-65 218 103 67 71c-23-6-38-20-44-43l32-5c15 47 100 32 89-28v-30C133-14 115 1 83 1 29 1 15-40 15-95c0-56 16-97 71-98 29-1 48 16 59 35 1-10 0-23 2-32h30zM94-22c36 0 50-32 50-73 0-42-14-75-50-75-39 0-46 34-46 75s6 73 46 73" id="aq"/><g id="i"><use transform="matrix(0.06362505462173444,0,0,0.06362505462173444,0,0)" xlink:href="#am"/><use transform="matrix(0.06362505462173444,0,0,0.06362505462173444,12.725010924346888,0)" xlink:href="#ap"/><use transform="matrix(0.06362505462173444,0,0,0.06362505462173444,25.450021848693776,0)" xlink:href="#aq"/><use transform="matrix(0.06362505462173444,0,0,0.06362505462173444,38.17503277304066,0)" xlink:href="#an"/></g><path fill="#333" d="M39-94c74 12-11 154 75 146v23c-44 4-70-10-70-52C44-23 55-84 6-82v-22c81 4-7-162 84-157h24v23c-82-15-2 131-75 144" id="ar"/><path fill="#333" d="M100-194c63 0 86 42 84 106H49c0 40 14 67 53 68 26 1 43-12 49-29l28 8c-11 28-37 45-77 45C44 4 14-33 15-96c1-61 26-98 85-98zm52 81c6-60-76-77-97-28-3 7-6 17-6 28h103" id="as"/><path fill="#333" d="M108 0H70L1-190h34L89-25l56-165h34" id="at"/><path fill="#333" d="M117-194c89-4 53 116 60 194h-32v-121c0-31-8-49-39-48C34-167 62-67 57 0H25l-1-190h30c1 10-1 24 2 32 11-22 29-35 61-36" id="au"/><path fill="#333" d="M59-47c-2 24 18 29 38 22v24C64 9 27 4 27-40v-127H5v-23h24l9-43h21v43h35v23H59v120" id="av"/><path fill="#333" d="M33-154v-36h34v36H33zM33 0v-36h34V0H33" id="aw"/><g id="j"><use transform="matrix(0.06362505462173444,0,0,0.06362505462173444,0,0)" xlink:href="#ar"/><use transform="matrix(0.06362505462173444,0,0,0.06362505462173444,7.635006554608133,0)" xlink:href="#as"/><use transform="matrix(0.06362505462173444,0,0,0.06362505462173444,20.360017478955022,0)" xlink:href="#at"/><use transform="matrix(0.06362505462173444,0,0,0.06362505462173444,31.81252731086722,0)" xlink:href="#as"/><use transform="matrix(0.06362505462173444,0,0,0.06362505462173444,44.53753823521411,0)" xlink:href="#au"/><use transform="matrix(0.06362505462173444,0,0,0.06362505462173444,57.262549159561,0)" xlink:href="#av"/><use transform="matrix(0.06362505462173444,0,0,0.06362505462173444,63.62505462173444,0)" xlink:href="#aw"/></g><path fill="#333" d="M121-226c-27-7-43 5-38 36h38v33H83V0H34v-157H6v-33h28c-9-59 32-81 87-68v32" id="ax"/><path fill="#333" d="M24 0v-248h52v208h133V0H24" id="ay"/><path fill="#333" d="M88-194c31-1 46 15 58 34l-1-101h50l1 261h-48c-2-10 0-23-3-31C134-8 116 4 84 4 32 4 16-41 15-95c0-56 19-97 73-99zm17 164c33 0 40-30 41-66 1-37-9-64-41-64s-38 30-39 65c0 43 13 65 39 65" id="az"/><g id="k"><use transform="matrix(0.06362505462173444,0,0,0.06362505462173444,0,0)" xlink:href="#ac"/><use transform="matrix(0.06362505462173444,0,0,0.06362505462173444,13.933886962159843,0)" xlink:href="#U"/><use transform="matrix(0.06362505462173444,0,0,0.06362505462173444,26.65889788650673,0)" xlink:href="#ax"/><use transform="matrix(0.06362505462173444,0,0,0.06362505462173444,34.23027938649313,0)" xlink:href="#Z"/><use transform="matrix(0.06362505462173444,0,0,0.06362505462173444,48.16416634865297,0)" xlink:href="#V"/><use transform="matrix(0.06362505462173444,0,0,0.06362505462173444,57.07167399569579,0)" xlink:href="#U"/><use transform="matrix(0.06362505462173444,0,0,0.06362505462173444,69.79668492004268,0)" xlink:href="#W"/><use transform="matrix(0.06362505462173444,0,0,0.06362505462173444,86.2755740670719,0)" xlink:href="#U"/><use transform="matrix(0.06362505462173444,0,0,0.06362505462173444,99.00058499141879,0)" xlink:href="#X"/><use transform="matrix(0.06362505462173444,0,0,0.06362505462173444,111.72559591576568,0)" xlink:href="#Y"/><use transform="matrix(0.06362505462173444,0,0,0.06362505462173444,124.45060684011257,0)" xlink:href="#Z"/><use transform="matrix(0.06362505462173444,0,0,0.06362505462173444,138.3844938022724,0)" xlink:href="#aa"/><use transform="matrix(0.06362505462173444,0,0,0.06362505462173444,152.31838076443225,0)" xlink:href="#ag"/><use transform="matrix(0.06362505462173444,0,0,0.06362505462173444,167.58839387364853,0)" xlink:href="#X"/><use transform="matrix(0.06362505462173444,0,0,0.06362505462173444,180.31340479799542,0)" xlink:href="#aj"/><use transform="matrix(0.06362505462173444,0,0,0.06362505462173444,194.24729176015526,0)" xlink:href="#U"/><use transform="matrix(0.06362505462173444,0,0,0.06362505462173444,206.97230268450215,0)" xlink:href="#ay"/><use transform="matrix(0.06362505462173444,0,0,0.06362505462173444,220.906189646662,0)" xlink:href="#Z"/><use transform="matrix(0.06362505462173444,0,0,0.06362505462173444,234.84007660882185,0)" xlink:href="#X"/><use transform="matrix(0.06362505462173444,0,0,0.06362505462173444,247.56508753316874,0)" xlink:href="#az"/></g><path fill="#333" d="M85-194c31 0 48 13 60 33l-1-100h32l1 261h-30c-2-10 0-23-3-31C134-8 116 4 85 4 32 4 16-35 15-94c0-66 23-100 70-100zm9 24c-40 0-46 34-46 75 0 40 6 74 45 74 42 0 51-32 51-76 0-42-9-74-50-73" id="aA"/><path fill="#333" d="M141-36C126-15 110 5 73 4 37 3 15-17 15-53c-1-64 63-63 125-63 3-35-9-54-41-54-24 1-41 7-42 31l-33-3c5-37 33-52 76-52 45 0 72 20 72 64v82c-1 20 7 32 28 27v20c-31 9-61-2-59-35zM48-53c0 20 12 33 32 33 41-3 63-29 60-74-43 2-92-5-92 41" id="aB"/><g id="l"><use transform="matrix(0.06362505462173444,0,0,0.06362505462173444,0,0)" xlink:href="#aA"/><use transform="matrix(0.06362505462173444,0,0,0.06362505462173444,12.725010924346888,0)" xlink:href="#aB"/><use transform="matrix(0.06362505462173444,0,0,0.06362505462173444,25.450021848693776,0)" xlink:href="#av"/><use transform="matrix(0.06362505462173444,0,0,0.06362505462173444,31.81252731086722,0)" xlink:href="#aB"/><use transform="matrix(0.06362505462173444,0,0,0.06362505462173444,44.53753823521411,0)" xlink:href="#aw"/></g><path fill="#333" d="M115-194c55 1 70 41 70 98S169 2 115 4C84 4 66-9 55-30l1 105H24l-1-265h31l2 30c10-21 28-34 59-34zm-8 174c40 0 45-34 45-75s-6-73-45-74c-42 0-51 32-51 76 0 43 10 73 51 73" id="aC"/><path fill="#333" d="M177-190C167-65 218 103 67 71c-23-6-38-20-44-43l32-5c15 47 100 32 89-28v-30C133-14 115 1 83 1 29 1 15-40 15-95c0-56 16-97 71-98 29-1 48 16 59 35 1-10 0-23 2-32h30zM94-22c36 0 50-32 50-73 0-42-14-75-50-75-39 0-46 34-46 75s6 73 46 73" id="aD"/><path fill="#333" d="M-5 72V49h209v23H-5" id="aE"/><path fill="#333" d="M179-190L93 31C79 59 56 82 12 73V49c39 6 53-20 64-50L1-190h34L92-34l54-156h33" id="aF"/><path fill="#333" d="M24-231v-30h32v30H24zM24 0v-190h32V0H24" id="aG"/><path fill="#333" d="M24 0v-261h32V0H24" id="aH"/><path fill="#333" d="M135-143c-3-34-86-38-87 0 15 53 115 12 119 90S17 21 10-45l28-5c4 36 97 45 98 0-10-56-113-15-118-90-4-57 82-63 122-42 12 7 21 19 24 35" id="aI"/><path fill="#333" d="M76-40C78 24 84 88 6 75V52C86 64 9-79 80-94c-40-6-34-59-34-106 1-29-11-41-40-38v-23c44-4 70 10 70 52 0 47-12 108 38 105v22c-26 1-39 14-38 42" id="aJ"/><g id="m"><use transform="matrix(0.06362505462173444,0,0,0.06362505462173444,0,0)" xlink:href="#ar"/><use transform="matrix(0.06362505462173444,0,0,0.06362505462173444,7.635006554608133,0)" xlink:href="#aC"/><use transform="matrix(0.06362505462173444,0,0,0.06362505462173444,20.360017478955022,0)" xlink:href="#aB"/><use transform="matrix(0.06362505462173444,0,0,0.06362505462173444,33.08502840330191,0)" xlink:href="#aD"/><use transform="matrix(0.06362505462173444,0,0,0.06362505462173444,45.8100393276488,0)" xlink:href="#as"/><use transform="matrix(0.06362505462173444,0,0,0.06362505462173444,58.53505025199569,0)" xlink:href="#aE"/><use transform="matrix(0.06362505462173444,0,0,0.06362505462173444,71.26006117634257,0)" xlink:href="#av"/><use transform="matrix(0.06362505462173444,0,0,0.06362505462173444,77.62256663851602,0)" xlink:href="#aF"/><use transform="matrix(0.06362505462173444,0,0,0.06362505462173444,89.07507647042821,0)" xlink:href="#aC"/><use transform="matrix(0.06362505462173444,0,0,0.06362505462173444,101.8000873947751,0)" xlink:href="#as"/><use transform="matrix(0.06362505462173444,0,0,0.06362505462173444,114.525098319122,0)" xlink:href="#aw"/><use transform="matrix(0.06362505462173444,0,0,0.06362505462173444,120.88760378129544,0)" xlink:href="#aA"/><use transform="matrix(0.06362505462173444,0,0,0.06362505462173444,133.61261470564233,0)" xlink:href="#as"/><use transform="matrix(0.06362505462173444,0,0,0.06362505462173444,146.33762562998922,0)" xlink:href="#av"/><use transform="matrix(0.06362505462173444,0,0,0.06362505462173444,152.70013109216265,0)" xlink:href="#aB"/><use transform="matrix(0.06362505462173444,0,0,0.06362505462173444,165.42514201650954,0)" xlink:href="#aG"/><use transform="matrix(0.06362505462173444,0,0,0.06362505462173444,170.45152133162657,0)" xlink:href="#aH"/><use transform="matrix(0.06362505462173444,0,0,0.06362505462173444,175.4779006467436,0)" xlink:href="#aI"/><use transform="matrix(0.06362505462173444,0,0,0.06362505462173444,186.9304104786558,0)" xlink:href="#aJ"/></g><use transform="matrix(0.06362505462173444,0,0,0.06362505462173444,0,0)" xlink:href="#aJ" id="n"/><path fill="#333" d="M212-179c-10-28-35-45-73-45-59 0-87 40-87 99 0 60 29 101 89 101 43 0 62-24 78-52l27 14C228-24 195 4 139 4 59 4 22-46 18-125c-6-104 99-153 187-111 19 9 31 26 39 46" id="aK"/><path fill="#333" d="M84 4C-5 8 30-112 23-190h32v120c0 31 7 50 39 49 72-2 45-101 50-169h31l1 190h-30c-1-10 1-25-2-33-11 22-28 36-60 37" id="aL"/><path fill="#333" d="M100-194c62-1 85 37 85 99 1 63-27 99-86 99S16-35 15-95c0-66 28-99 85-99zM99-20c44 1 53-31 53-75 0-43-8-75-51-75s-53 32-53 75 10 74 51 75" id="aM"/><path fill="#333" d="M210-169c-67 3-38 105-44 169h-31v-121c0-29-5-50-35-48C34-165 62-65 56 0H25l-1-190h30c1 10-1 24 2 32 10-44 99-50 107 0 11-21 27-35 58-36 85-2 47 119 55 194h-31v-121c0-29-5-49-35-48" id="aN"/><g id="o"><use transform="matrix(0.06362505462173444,0,0,0.06362505462173444,0,0)" xlink:href="#aK"/><use transform="matrix(0.06362505462173444,0,0,0.06362505462173444,16.47888914702922,0)" xlink:href="#aL"/><use transform="matrix(0.06362505462173444,0,0,0.06362505462173444,29.20390007137611,0)" xlink:href="#aI"/><use transform="matrix(0.06362505462173444,0,0,0.06362505462173444,40.656409903288306,0)" xlink:href="#av"/><use transform="matrix(0.06362505462173444,0,0,0.06362505462173444,47.01891536546175,0)" xlink:href="#aM"/><use transform="matrix(0.06362505462173444,0,0,0.06362505462173444,59.74392628980864,0)" xlink:href="#aN"/></g><path fill="#333" d="M96-169c-40 0-48 33-48 73s9 75 48 75c24 0 41-14 43-38l32 2c-6 37-31 61-74 61-59 0-76-41-82-99-10-93 101-131 147-64 4 7 5 14 7 22l-32 3c-4-21-16-35-41-35" id="aO"/><g id="p"><use transform="matrix(0.06362505462173444,0,0,0.06362505462173444,0,0)" xlink:href="#aB"/><use transform="matrix(0.06362505462173444,0,0,0.06362505462173444,12.725010924346888,0)" xlink:href="#aO"/><use transform="matrix(0.06362505462173444,0,0,0.06362505462173444,24.177520756259085,0)" xlink:href="#av"/><use transform="matrix(0.06362505462173444,0,0,0.06362505462173444,30.54002621843253,0)" xlink:href="#aG"/><use transform="matrix(0.06362505462173444,0,0,0.06362505462173444,35.56640553354955,0)" xlink:href="#aM"/><use transform="matrix(0.06362505462173444,0,0,0.06362505462173444,48.29141645789644,0)" xlink:href="#au"/></g><g id="q"><use transform="matrix(0.06362505462173444,0,0,0.06362505462173444,0,0)" xlink:href="#Z"/><use transform="matrix(0.06362505462173444,0,0,0.06362505462173444,13.933886962159843,0)" xlink:href="#aa"/><use transform="matrix(0.06362505462173444,0,0,0.06362505462173444,27.867773924319685,0)" xlink:href="#W"/><use transform="matrix(0.06362505462173444,0,0,0.06362505462173444,44.34666307134891,0)" xlink:href="#U"/><use transform="matrix(0.06362505462173444,0,0,0.06362505462173444,57.0716739956958,0)" xlink:href="#X"/><use transform="matrix(0.06362505462173444,0,0,0.06362505462173444,69.79668492004268,0)" xlink:href="#Y"/><use transform="matrix(0.06362505462173444,0,0,0.06362505462173444,82.52169584438957,0)" xlink:href="#Z"/><use transform="matrix(0.06362505462173444,0,0,0.06362505462173444,96.45558280654942,0)" xlink:href="#aa"/><use transform="matrix(0.06362505462173444,0,0,0.06362505462173444,110.38946976870926,0)" xlink:href="#ag"/><use transform="matrix(0.06362505462173444,0,0,0.06362505462173444,125.65948287792553,0)" xlink:href="#X"/><use transform="matrix(0.06362505462173444,0,0,0.06362505462173444,138.3844938022724,0)" xlink:href="#aj"/><use transform="matrix(0.06362505462173444,0,0,0.06362505462173444,152.31838076443225,0)" xlink:href="#U"/><use transform="matrix(0.06362505462173444,0,0,0.06362505462173444,165.04339168877914,0)" xlink:href="#ay"/><use transform="matrix(0.06362505462173444,0,0,0.06362505462173444,178.97727865093898,0)" xlink:href="#Z"/><use transform="matrix(0.06362505462173444,0,0,0.06362505462173444,192.91116561309883,0)" xlink:href="#X"/><use transform="matrix(0.06362505462173444,0,0,0.06362505462173444,205.63617653744572,0)" xlink:href="#az"/></g><use transform="matrix(0.06362505462173444,0,0,0.06362505462173444,0,0)" xlink:href="#aJ" id="r"/><path fill="#333" d="M30-248c87 1 191-15 191 75 0 78-77 80-158 76V0H30v-248zm33 125c57 0 124 11 124-50 0-59-68-47-124-48v98" id="aP"/><g id="t"><use transform="matrix(0.06362505462173444,0,0,0.06362505462173444,0,0)" xlink:href="#aP"/><use transform="matrix(0.06362505462173444,0,0,0.06362505462173444,15.270013109216267,0)" xlink:href="#aB"/><use transform="matrix(0.06362505462173444,0,0,0.06362505462173444,27.995024033563155,0)" xlink:href="#aD"/><use transform="matrix(0.06362505462173444,0,0,0.06362505462173444,40.720034957910045,0)" xlink:href="#as"/></g><path fill="#333" d="M114-163C36-179 61-72 57 0H25l-1-190h30c1 12-1 29 2 39 6-27 23-49 58-41v29" id="aQ"/><g id="u"><use transform="matrix(0.06362505462173444,0,0,0.06362505462173444,0,0)" xlink:href="#aQ"/><use transform="matrix(0.06362505462173444,0,0,0.06362505462173444,7.571381499986399,0)" xlink:href="#as"/><use transform="matrix(0.06362505462173444,0,0,0.06362505462173444,20.296392424333288,0)" xlink:href="#au"/><use transform="matrix(0.06362505462173444,0,0,0.06362505462173444,33.021403348680174,0)" xlink:href="#aA"/><use transform="matrix(0.06362505462173444,0,0,0.06362505462173444,45.746414273027064,0)" xlink:href="#as"/><use transform="matrix(0.06362505462173444,0,0,0.06362505462173444,58.471425197373954,0)" xlink:href="#aQ"/><use transform="matrix(0.06362505462173444,0,0,0.06362505462173444,66.04280669736035,0)" xlink:href="#as"/><use transform="matrix(0.06362505462173444,0,0,0.06362505462173444,78.76781762170724,0)" xlink:href="#aA"/></g><path fill="#282c33" d="M212-179c-10-28-35-45-73-45-59 0-87 40-87 99 0 60 29 101 89 101 43 0 62-24 78-52l27 14C228-24 195 4 139 4 59 4 22-46 18-125c-6-104 99-153 187-111 19 9 31 26 39 46" id="aR"/><path fill="#282c33" d="M24 0v-261h32V0H24" id="aS"/><path fill="#282c33" d="M24-231v-30h32v30H24zM24 0v-190h32V0H24" id="aT"/><path fill="#282c33" d="M96-169c-40 0-48 33-48 73s9 75 48 75c24 0 41-14 43-38l32 2c-6 37-31 61-74 61-59 0-76-41-82-99-10-93 101-131 147-64 4 7 5 14 7 22l-32 3c-4-21-16-35-41-35" id="aU"/><path fill="#282c33" d="M143 0L79-87 56-68V0H24v-261h32v163l83-92h37l-77 82L181 0h-38" id="aV"/><g id="v"><use transform="matrix(0.06362505462173444,0,0,0.06362505462173444,0,0)" xlink:href="#aR"/><use transform="matrix(0.06362505462173444,0,0,0.06362505462173444,16.47888914702922,0)" xlink:href="#aS"/><use transform="matrix(0.06362505462173444,0,0,0.06362505462173444,21.50526846214624,0)" xlink:href="#aT"/><use transform="matrix(0.06362505462173444,0,0,0.06362505462173444,26.53164777726326,0)" xlink:href="#aU"/><use transform="matrix(0.06362505462173444,0,0,0.06362505462173444,37.984157609175455,0)" xlink:href="#aV"/></g><path fill="#282c33" d="M84 4C-5 8 30-112 23-190h32v120c0 31 7 50 39 49 72-2 45-101 50-169h31l1 190h-30c-1-10 1-25-2-33-11 22-28 36-60 37" id="aW"/><path fill="#282c33" d="M135-143c-3-34-86-38-87 0 15 53 115 12 119 90S17 21 10-45l28-5c4 36 97 45 98 0-10-56-113-15-118-90-4-57 82-63 122-42 12 7 21 19 24 35" id="aX"/><path fill="#282c33" d="M59-47c-2 24 18 29 38 22v24C64 9 27 4 27-40v-127H5v-23h24l9-43h21v43h35v23H59v120" id="aY"/><path fill="#282c33" d="M100-194c62-1 85 37 85 99 1 63-27 99-86 99S16-35 15-95c0-66 28-99 85-99zM99-20c44 1 53-31 53-75 0-43-8-75-51-75s-53 32-53 75 10 74 51 75" id="aZ"/><path fill="#282c33" d="M210-169c-67 3-38 105-44 169h-31v-121c0-29-5-50-35-48C34-165 62-65 56 0H25l-1-190h30c1 10-1 24 2 32 10-44 99-50 107 0 11-21 27-35 58-36 85-2 47 119 55 194h-31v-121c0-29-5-49-35-48" id="ba"/><g id="w"><use transform="matrix(0.06362505462173444,0,0,0.06362505462173444,0,0)" xlink:href="#aU"/><use transform="matrix(0.06362505462173444,0,0,0.06362505462173444,11.452509831912199,0)" xlink:href="#aW"/><use transform="matrix(0.06362505462173444,0,0,0.06362505462173444,24.177520756259085,0)" xlink:href="#aX"/><use transform="matrix(0.06362505462173444,0,0,0.06362505462173444,35.63003058817128,0)" xlink:href="#aY"/><use transform="matrix(0.06362505462173444,0,0,0.06362505462173444,41.992536050344725,0)" xlink:href="#aZ"/><use transform="matrix(0.06362505462173444,0,0,0.06362505462173444,54.717546974691615,0)" xlink:href="#ba"/></g><path fill="#282c33" d="M115-194c53 0 69 39 70 98 0 66-23 100-70 100C84 3 66-7 56-30L54 0H23l1-261h32v101c10-23 28-34 59-34zm-8 174c40 0 45-34 45-75 0-40-5-75-45-74-42 0-51 32-51 76 0 43 10 73 51 73" id="bb"/><g id="x"><use transform="matrix(0.06362505462173444,0,0,0.06362505462173444,0,0)" xlink:href="#bb"/><use transform="matrix(0.06362505462173444,0,0,0.06362505462173444,12.725010924346888,0)" xlink:href="#aW"/><use transform="matrix(0.06362505462173444,0,0,0.06362505462173444,25.450021848693776,0)" xlink:href="#aY"/><use transform="matrix(0.06362505462173444,0,0,0.06362505462173444,31.81252731086722,0)" xlink:href="#aY"/><use transform="matrix(0.06362505462173444,0,0,0.06362505462173444,38.17503277304066,0)" xlink:href="#aZ"/><use transform="matrix(0.06362505462173444,0,0,0.06362505462173444,50.90004369738755,0)" xlink:href="#ao"/></g><g id="y"><use transform="matrix(0.06362505462173444,0,0,0.06362505462173444,0,0)" xlink:href="#ar"/><use transform="matrix(0.06362505462173444,0,0,0.06362505462173444,7.635006554608133,0)" xlink:href="#as"/><use transform="matrix(0.06362505462173444,0,0,0.06362505462173444,20.360017478955022,0)" xlink:href="#at"/><use transform="matrix(0.06362505462173444,0,0,0.06362505462173444,31.81252731086722,0)" xlink:href="#as"/><use transform="matrix(0.06362505462173444,0,0,0.06362505462173444,44.53753823521411,0)" xlink:href="#au"/><use transform="matrix(0.06362505462173444,0,0,0.06362505462173444,57.262549159561,0)" xlink:href="#av"/><use transform="matrix(0.06362505462173444,0,0,0.06362505462173444,63.62505462173444,0)" xlink:href="#aw"/></g><path fill="#333" d="M115-3C79 11 28 4 28-45v-112H4v-33h27l15-45h31v45h36v33H77v99c-1 23 16 31 38 25v30" id="bc"/><path fill="#333" d="M24 0v-248h195v40H76v63h132v40H76v65h150V0H24" id="bd"/><path fill="#333" d="M144 0l-44-69L55 0H2l70-98-66-92h53l41 62 40-62h54l-67 91 71 99h-54" id="be"/><path fill="#333" d="M275 0h-61l-44-196L126 0H64L0-248h53L97-49l45-199h58l43 199 44-199h52" id="bf"/><path fill="#333" d="M67-125c0 53 21 87 73 88 37 1 54-22 65-47l45 17C233-25 199 4 140 4 58 4 20-42 15-125 8-235 124-281 211-232c18 10 29 29 36 50l-46 12c-8-25-30-41-62-41-52 0-71 34-72 86" id="bg"/><path fill="#333" d="M147 0L96-86 75-71V0H25v-261h50v150l67-79h53l-66 74L201 0h-54" id="bh"/><g id="z"><use transform="matrix(0.06362505462173444,0,0,0.06362505462173444,0,0)" xlink:href="#az"/><use transform="matrix(0.06362505462173444,0,0,0.06362505462173444,13.933886962159843,0)" xlink:href="#U"/><use transform="matrix(0.06362505462173444,0,0,0.06362505462173444,26.65889788650673,0)" xlink:href="#bc"/><use transform="matrix(0.06362505462173444,0,0,0.06362505462173444,34.23027938649313,0)" xlink:href="#X"/><use transform="matrix(0.06362505462173444,0,0,0.06362505462173444,46.95529031084002,0)" xlink:href="#ak"/><use transform="matrix(0.06362505462173444,0,0,0.06362505462173444,53.317795773013465,0)" xlink:href="#ah"/><use transform="matrix(0.06362505462173444,0,0,0.06362505462173444,59.68030123518691,0)" xlink:href="#T"/><use transform="matrix(0.06362505462173444,0,0,0.06362505462173444,72.40531215953379,0)" xlink:href="#ag"/><use transform="matrix(0.06362505462173444,0,0,0.06362505462173444,87.67532526875006,0)" xlink:href="#X"/><use transform="matrix(0.06362505462173444,0,0,0.06362505462173444,100.40033619309695,0)" xlink:href="#aj"/><use transform="matrix(0.06362505462173444,0,0,0.06362505462173444,114.3342231552568,0)" xlink:href="#U"/><use transform="matrix(0.06362505462173444,0,0,0.06362505462173444,127.05923407960368,0)" xlink:href="#bd"/><use transform="matrix(0.06362505462173444,0,0,0.06362505462173444,142.32924718881995,0)" xlink:href="#be"/><use transform="matrix(0.06362505462173444,0,0,0.06362505462173444,155.05425811316684,0)" xlink:href="#bc"/><use transform="matrix(0.06362505462173444,0,0,0.06362505462173444,162.62563961315323,0)" xlink:href="#U"/><use transform="matrix(0.06362505462173444,0,0,0.06362505462173444,175.35065053750012,0)" xlink:href="#V"/><use transform="matrix(0.06362505462173444,0,0,0.06362505462173444,184.25815818454294,0)" xlink:href="#aa"/><use transform="matrix(0.06362505462173444,0,0,0.06362505462173444,198.19204514670278,0)" xlink:href="#X"/><use transform="matrix(0.06362505462173444,0,0,0.06362505462173444,210.91705607104967,0)" xlink:href="#ah"/><use transform="matrix(0.06362505462173444,0,0,0.06362505462173444,217.2795615332231,0)" xlink:href="#W"/><use transform="matrix(0.06362505462173444,0,0,0.06362505462173444,233.75845068025234,0)" xlink:href="#ai"/><use transform="matrix(0.06362505462173444,0,0,0.06362505462173444,247.69233764241218,0)" xlink:href="#bc"/><use transform="matrix(0.06362505462173444,0,0,0.06362505462173444,255.26371914239857,0)" xlink:href="#bc"/><use transform="matrix(0.06362505462173444,0,0,0.06362505462173444,262.835100642385,0)" xlink:href="#Z"/><use transform="matrix(0.06362505462173444,0,0,0.06362505462173444,276.7689876045448,0)" xlink:href="#aa"/><use transform="matrix(0.06362505462173444,0,0,0.06362505462173444,290.7028745667046,0)" xlink:href="#bf"/><use transform="matrix(0.06362505462173444,0,0,0.06362505462173444,311.44464237339,0)" xlink:href="#X"/><use transform="matrix(0.06362505462173444,0,0,0.06362505462173444,324.1696532977369,0)" xlink:href="#T"/><use transform="matrix(0.06362505462173444,0,0,0.06362505462173444,336.89466422208375,0)" xlink:href="#bg"/><use transform="matrix(0.06362505462173444,0,0,0.06362505462173444,353.373553369113,0)" xlink:href="#ah"/><use transform="matrix(0.06362505462173444,0,0,0.06362505462173444,359.7360588312864,0)" xlink:href="#ak"/><use transform="matrix(0.06362505462173444,0,0,0.06362505462173444,366.09856429345984,0)" xlink:href="#Y"/><use transform="matrix(0.06362505462173444,0,0,0.06362505462173444,378.8235752178067,0)" xlink:href="#bh"/><use transform="matrix(0.06362505462173444,0,0,0.06362505462173444,391.54858614215357,0)" xlink:href="#U"/><use transform="matrix(0.06362505462173444,0,0,0.06362505462173444,404.27359706650043,0)" xlink:href="#az"/></g><g id="A"><use transform="matrix(0.06362505462173444,0,0,0.06362505462173444,0,0)" xlink:href="#aA"/><use transform="matrix(0.06362505462173444,0,0,0.06362505462173444,12.725010924346888,0)" xlink:href="#aB"/><use transform="matrix(0.06362505462173444,0,0,0.06362505462173444,25.450021848693776,0)" xlink:href="#av"/><use transform="matrix(0.06362505462173444,0,0,0.06362505462173444,31.81252731086722,0)" xlink:href="#aB"/><use transform="matrix(0.06362505462173444,0,0,0.06362505462173444,44.53753823521411,0)" xlink:href="#aw"/></g><path fill="#333" d="M18-100v-36l175-74v27L42-118l151 64v27" id="bi"/><path fill="#333" d="M16-82v-28h88v28H16" id="bj"/><path fill="#333" d="M18-27v-27l151-64-151-65v-27l175 74v36" id="bk"/><path fill="#333" d="M68-38c1 34 0 65-14 84H32c9-13 17-26 17-46H33v-38h35" id="bl"/><g id="B"><use transform="matrix(0.06362505462173444,0,0,0.06362505462173444,0,0)" xlink:href="#ar"/><use transform="matrix(0.06362505462173444,0,0,0.06362505462173444,7.635006554608133,0)" xlink:href="#aB"/><use transform="matrix(0.06362505462173444,0,0,0.06362505462173444,20.360017478955022,0)" xlink:href="#aI"/><use transform="matrix(0.06362505462173444,0,0,0.06362505462173444,31.81252731086722,0)" xlink:href="#aI"/><use transform="matrix(0.06362505462173444,0,0,0.06362505462173444,43.26503714277942,0)" xlink:href="#as"/><use transform="matrix(0.06362505462173444,0,0,0.06362505462173444,55.99004806712631,0)" xlink:href="#av"/><use transform="matrix(0.06362505462173444,0,0,0.06362505462173444,62.352553529299755,0)" xlink:href="#aE"/><use transform="matrix(0.06362505462173444,0,0,0.06362505462173444,75.07756445364664,0)" xlink:href="#aG"/><use transform="matrix(0.06362505462173444,0,0,0.06362505462173444,80.10394376876367,0)" xlink:href="#aA"/><use transform="matrix(0.06362505462173444,0,0,0.06362505462173444,92.82895469311056,0)" xlink:href="#aw"/><use transform="matrix(0.06362505462173444,0,0,0.06362505462173444,99.191460155284,0)" xlink:href="#bi"/><use transform="matrix(0.06362505462173444,0,0,0.06362505462173444,112.55272162584824,0)" xlink:href="#aB"/><use transform="matrix(0.06362505462173444,0,0,0.06362505462173444,125.27773255019513,0)" xlink:href="#aI"/><use transform="matrix(0.06362505462173444,0,0,0.06362505462173444,136.73024238210732,0)" xlink:href="#aI"/><use transform="matrix(0.06362505462173444,0,0,0.06362505462173444,148.1827522140195,0)" xlink:href="#as"/><use transform="matrix(0.06362505462173444,0,0,0.06362505462173444,160.90776313836642,0)" xlink:href="#av"/><use transform="matrix(0.06362505462173444,0,0,0.06362505462173444,167.27026860053985,0)" xlink:href="#bj"/><use transform="matrix(0.06362505462173444,0,0,0.06362505462173444,174.84165010052624,0)" xlink:href="#aG"/><use transform="matrix(0.06362505462173444,0,0,0.06362505462173444,179.86802941564326,0)" xlink:href="#aA"/><use transform="matrix(0.06362505462173444,0,0,0.06362505462173444,192.59304033999015,0)" xlink:href="#bk"/><use transform="matrix(0.06362505462173444,0,0,0.06362505462173444,205.9543018105544,0)" xlink:href="#bl"/></g><g id="C"><use transform="matrix(0.06362505462173444,0,0,0.06362505462173444,0,0)" xlink:href="#as"/><use transform="matrix(0.06362505462173444,0,0,0.06362505462173444,12.725010924346888,0)" xlink:href="#aH"/><use transform="matrix(0.06362505462173444,0,0,0.06362505462173444,17.75139023946391,0)" xlink:href="#as"/><use transform="matrix(0.06362505462173444,0,0,0.06362505462173444,30.4764011638108,0)" xlink:href="#aN"/><use transform="matrix(0.06362505462173444,0,0,0.06362505462173444,49.500292495709395,0)" xlink:href="#as"/><use transform="matrix(0.06362505462173444,0,0,0.06362505462173444,62.225303420056285,0)" xlink:href="#au"/><use transform="matrix(0.06362505462173444,0,0,0.06362505462173444,74.95031434440317,0)" xlink:href="#av"/><use transform="matrix(0.06362505462173444,0,0,0.06362505462173444,81.31281980657661,0)" xlink:href="#aE"/><use transform="matrix(0.06362505462173444,0,0,0.06362505462173444,94.0378307309235,0)" xlink:href="#aG"/><use transform="matrix(0.06362505462173444,0,0,0.06362505462173444,99.06421004604053,0)" xlink:href="#aA"/><use transform="matrix(0.06362505462173444,0,0,0.06362505462173444,111.78922097038742,0)" xlink:href="#aw"/><use transform="matrix(0.06362505462173444,0,0,0.06362505462173444,118.15172643256086,0)" xlink:href="#bi"/><use transform="matrix(0.06362505462173444,0,0,0.06362505462173444,131.5129879031251,0)" xlink:href="#as"/><use transform="matrix(0.06362505462173444,0,0,0.06362505462173444,144.23799882747198,0)" xlink:href="#aH"/><use transform="matrix(0.06362505462173444,0,0,0.06362505462173444,149.264378142589,0)" xlink:href="#as"/><use transform="matrix(0.06362505462173444,0,0,0.06362505462173444,161.9893890669359,0)" xlink:href="#aN"/><use transform="matrix(0.06362505462173444,0,0,0.06362505462173444,181.0132803988345,0)" xlink:href="#as"/><use transform="matrix(0.06362505462173444,0,0,0.06362505462173444,193.7382913231814,0)" xlink:href="#au"/><use transform="matrix(0.06362505462173444,0,0,0.06362505462173444,206.46330224752828,0)" xlink:href="#av"/><use transform="matrix(0.06362505462173444,0,0,0.06362505462173444,212.8258077097017,0)" xlink:href="#bj"/><use transform="matrix(0.06362505462173444,0,0,0.06362505462173444,220.3971892096881,0)" xlink:href="#aG"/><use transform="matrix(0.06362505462173444,0,0,0.06362505462173444,225.42356852480512,0)" xlink:href="#aA"/><use transform="matrix(0.06362505462173444,0,0,0.06362505462173444,238.148579449152,0)" xlink:href="#bk"/><use transform="matrix(0.06362505462173444,0,0,0.06362505462173444,251.50984091971625,0)" xlink:href="#aJ"/></g><path fill="#333" d="M160-131c35 5 61 23 61 61C221 17 115-2 30 0v-248c76 3 177-17 177 60 0 33-19 50-47 57zm-97-11c50-1 110 9 110-42 0-47-63-36-110-37v79zm0 115c55-2 124 14 124-45 0-56-70-42-124-44v89" id="bm"/><g id="E"><use transform="matrix(0.06362505462173444,0,0,0.06362505462173444,0,0)" xlink:href="#bm"/><use transform="matrix(0.06362505462173444,0,0,0.06362505462173444,15.270013109216267,0)" xlink:href="#aL"/><use transform="matrix(0.06362505462173444,0,0,0.06362505462173444,27.995024033563155,0)" xlink:href="#av"/><use transform="matrix(0.06362505462173444,0,0,0.06362505462173444,34.3575294957366,0)" xlink:href="#av"/><use transform="matrix(0.06362505462173444,0,0,0.06362505462173444,40.720034957910045,0)" xlink:href="#aM"/><use transform="matrix(0.06362505462173444,0,0,0.06362505462173444,53.445045882256935,0)" xlink:href="#au"/></g><path fill="#333" d="M143 0L79-87 56-68V0H24v-261h32v163l83-92h37l-77 82L181 0h-38" id="bn"/><g id="F"><use transform="matrix(0.06362505462173444,0,0,0.06362505462173444,0,0)" xlink:href="#aO"/><use transform="matrix(0.06362505462173444,0,0,0.06362505462173444,11.452509831912199,0)" xlink:href="#aH"/><use transform="matrix(0.06362505462173444,0,0,0.06362505462173444,16.47888914702922,0)" xlink:href="#aG"/><use transform="matrix(0.06362505462173444,0,0,0.06362505462173444,21.50526846214624,0)" xlink:href="#aO"/><use transform="matrix(0.06362505462173444,0,0,0.06362505462173444,32.95777829405844,0)" xlink:href="#bn"/><use transform="matrix(0.06362505462173444,0,0,0.06362505462173444,44.41028812597064,0)" xlink:href="#as"/><use transform="matrix(0.06362505462173444,0,0,0.06362505462173444,57.13529905031753,0)" xlink:href="#aA"/></g><path fill="#333" d="M205 0l-28-72H64L36 0H1l101-248h38L239 0h-34zm-38-99l-47-123c-12 45-31 82-46 123h93" id="bo"/><g id="G"><use transform="matrix(0.06362505462173444,0,0,0.06362505462173444,0,0)" xlink:href="#bo"/><use transform="matrix(0.06362505462173444,0,0,0.06362505462173444,15.270013109216267,0)" xlink:href="#aA"/><use transform="matrix(0.06362505462173444,0,0,0.06362505462173444,27.995024033563155,0)" xlink:href="#aA"/></g><g id="H"><use transform="matrix(0.06362505462173444,0,0,0.06362505462173444,0,0)" xlink:href="#aO"/><use transform="matrix(0.06362505462173444,0,0,0.06362505462173444,11.452509831912199,0)" xlink:href="#aL"/><use transform="matrix(0.06362505462173444,0,0,0.06362505462173444,24.177520756259085,0)" xlink:href="#aI"/><use transform="matrix(0.06362505462173444,0,0,0.06362505462173444,35.63003058817128,0)" xlink:href="#av"/><use transform="matrix(0.06362505462173444,0,0,0.06362505462173444,41.992536050344725,0)" xlink:href="#aM"/><use transform="matrix(0.06362505462173444,0,0,0.06362505462173444,54.717546974691615,0)" xlink:href="#aN"/></g><path fill="#333" d="M115-194c53 0 69 39 70 98 0 66-23 100-70 100C84 3 66-7 56-30L54 0H23l1-261h32v101c10-23 28-34 59-34zm-8 174c40 0 45-34 45-75 0-40-5-75-45-74-42 0-51 32-51 76 0 43 10 73 51 73" id="bp"/><g id="I"><use transform="matrix(0.06362505462173444,0,0,0.06362505462173444,0,0)" xlink:href="#bp"/><use transform="matrix(0.06362505462173444,0,0,0.06362505462173444,12.725010924346888,0)" xlink:href="#aL"/><use transform="matrix(0.06362505462173444,0,0,0.06362505462173444,25.450021848693776,0)" xlink:href="#av"/><use transform="matrix(0.06362505462173444,0,0,0.06362505462173444,31.81252731086722,0)" xlink:href="#av"/><use transform="matrix(0.06362505462173444,0,0,0.06362505462173444,38.17503277304066,0)" xlink:href="#aM"/><use transform="matrix(0.06362505462173444,0,0,0.06362505462173444,50.90004369738755,0)" xlink:href="#au"/></g><g id="J"><use transform="matrix(0.06362505462173444,0,0,0.06362505462173444,0,0)" xlink:href="#aK"/><use transform="matrix(0.06362505462173444,0,0,0.06362505462173444,16.47888914702922,0)" xlink:href="#aL"/><use transform="matrix(0.06362505462173444,0,0,0.06362505462173444,29.20390007137611,0)" xlink:href="#aI"/><use transform="matrix(0.06362505462173444,0,0,0.06362505462173444,40.656409903288306,0)" xlink:href="#av"/><use transform="matrix(0.06362505462173444,0,0,0.06362505462173444,47.01891536546175,0)" xlink:href="#aM"/><use transform="matrix(0.06362505462173444,0,0,0.06362505462173444,59.74392628980864,0)" xlink:href="#aN"/></g><g id="K"><use transform="matrix(0.06362505462173444,0,0,0.06362505462173444,0,0)" xlink:href="#bp"/><use transform="matrix(0.06362505462173444,0,0,0.06362505462173444,12.725010924346888,0)" xlink:href="#aL"/><use transform="matrix(0.06362505462173444,0,0,0.06362505462173444,25.450021848693776,0)" xlink:href="#av"/><use transform="matrix(0.06362505462173444,0,0,0.06362505462173444,31.81252731086722,0)" xlink:href="#av"/><use transform="matrix(0.06362505462173444,0,0,0.06362505462173444,38.17503277304066,0)" xlink:href="#aM"/><use transform="matrix(0.06362505462173444,0,0,0.06362505462173444,50.90004369738755,0)" xlink:href="#au"/></g><g id="L"><use transform="matrix(0.06362505462173444,0,0,0.06362505462173444,0,0)" xlink:href="#aB"/><use transform="matrix(0.06362505462173444,0,0,0.06362505462173444,12.725010924346888,0)" xlink:href="#aO"/><use transform="matrix(0.06362505462173444,0,0,0.06362505462173444,24.177520756259085,0)" xlink:href="#av"/><use transform="matrix(0.06362505462173444,0,0,0.06362505462173444,30.54002621843253,0)" xlink:href="#aG"/><use transform="matrix(0.06362505462173444,0,0,0.06362505462173444,35.56640553354955,0)" xlink:href="#aM"/><use transform="matrix(0.06362505462173444,0,0,0.06362505462173444,48.29141645789644,0)" xlink:href="#au"/></g><path fill="#333" d="M199 0l-22-63H83L61 0H9l90-248h61L250 0h-51zm-33-102l-36-108c-10 38-24 72-36 108h72" id="bq"/><path fill="#333" d="M220-157c-53 9-28 100-34 157h-49v-107c1-27-5-49-29-50C55-147 81-57 75 0H25l-1-190h47c2 12-1 28 3 38 10-53 101-56 108 0 13-22 24-43 59-42 82 1 51 116 57 194h-49v-107c-1-25-5-48-29-50" id="br"/><g id="M"><use transform="matrix(0.06362505462173444,0,0,0.06362505462173444,0,0)" xlink:href="#az"/><use transform="matrix(0.06362505462173444,0,0,0.06362505462173444,13.933886962159843,0)" xlink:href="#U"/><use transform="matrix(0.06362505462173444,0,0,0.06362505462173444,26.65889788650673,0)" xlink:href="#bc"/><use transform="matrix(0.06362505462173444,0,0,0.06362505462173444,34.23027938649313,0)" xlink:href="#X"/><use transform="matrix(0.06362505462173444,0,0,0.06362505462173444,46.95529031084002,0)" xlink:href="#ak"/><use transform="matrix(0.06362505462173444,0,0,0.06362505462173444,53.317795773013465,0)" xlink:href="#ah"/><use transform="matrix(0.06362505462173444,0,0,0.06362505462173444,59.68030123518691,0)" xlink:href="#T"/><use transform="matrix(0.06362505462173444,0,0,0.06362505462173444,72.40531215953379,0)" xlink:href="#ag"/><use transform="matrix(0.06362505462173444,0,0,0.06362505462173444,87.67532526875006,0)" xlink:href="#X"/><use transform="matrix(0.06362505462173444,0,0,0.06362505462173444,100.40033619309695,0)" xlink:href="#aj"/><use transform="matrix(0.06362505462173444,0,0,0.06362505462173444,114.3342231552568,0)" xlink:href="#U"/><use transform="matrix(0.06362505462173444,0,0,0.06362505462173444,127.05923407960368,0)" xlink:href="#bq"/><use transform="matrix(0.06362505462173444,0,0,0.06362505462173444,143.5381232266329,0)" xlink:href="#az"/><use transform="matrix(0.06362505462173444,0,0,0.06362505462173444,157.47201018879275,0)" xlink:href="#az"/><use transform="matrix(0.06362505462173444,0,0,0.06362505462173444,171.4058971509526,0)" xlink:href="#bg"/><use transform="matrix(0.06362505462173444,0,0,0.06362505462173444,187.8847862979818,0)" xlink:href="#ai"/><use transform="matrix(0.06362505462173444,0,0,0.06362505462173444,201.81867326014165,0)" xlink:href="#T"/><use transform="matrix(0.06362505462173444,0,0,0.06362505462173444,214.54368418448854,0)" xlink:href="#bc"/><use transform="matrix(0.06362505462173444,0,0,0.06362505462173444,222.11506568447493,0)" xlink:href="#Z"/><use transform="matrix(0.06362505462173444,0,0,0.06362505462173444,236.04895264663477,0)" xlink:href="#br"/><use transform="matrix(0.06362505462173444,0,0,0.06362505462173444,256.4089701255898,0)" xlink:href="#W"/><use transform="matrix(0.06362505462173444,0,0,0.06362505462173444,272.88785927261904,0)" xlink:href="#ai"/><use transform="matrix(0.06362505462173444,0,0,0.06362505462173444,286.82174623477886,0)" xlink:href="#bc"/><use transform="matrix(0.06362505462173444,0,0,0.06362505462173444,294.39312773476524,0)" xlink:href="#bc"/><use transform="matrix(0.06362505462173444,0,0,0.06362505462173444,301.96450923475163,0)" xlink:href="#Z"/><use transform="matrix(0.06362505462173444,0,0,0.06362505462173444,315.89839619691145,0)" xlink:href="#aa"/></g><g id="N"><use transform="matrix(0.06362505462173444,0,0,0.06362505462173444,0,0)" xlink:href="#ar"/><use transform="matrix(0.06362505462173444,0,0,0.06362505462173444,7.635006554608133,0)" xlink:href="#av"/><use transform="matrix(0.06362505462173444,0,0,0.06362505462173444,13.997512016781577,0)" xlink:href="#aG"/><use transform="matrix(0.06362505462173444,0,0,0.06362505462173444,19.023891331898596,0)" xlink:href="#av"/><use transform="matrix(0.06362505462173444,0,0,0.06362505462173444,25.38639679407204,0)" xlink:href="#aH"/><use transform="matrix(0.06362505462173444,0,0,0.06362505462173444,30.41277610918906,0)" xlink:href="#as"/><use transform="matrix(0.06362505462173444,0,0,0.06362505462173444,43.13778703353595,0)" xlink:href="#aw"/><use transform="matrix(0.06362505462173444,0,0,0.06362505462173444,49.500292495709395,0)" xlink:href="#bi"/><use transform="matrix(0.06362505462173444,0,0,0.06362505462173444,62.86155396627363,0)" xlink:href="#bp"/><use transform="matrix(0.06362505462173444,0,0,0.06362505462173444,75.58656489062052,0)" xlink:href="#aL"/><use transform="matrix(0.06362505462173444,0,0,0.06362505462173444,88.31157581496741,0)" xlink:href="#av"/><use transform="matrix(0.06362505462173444,0,0,0.06362505462173444,94.67408127714087,0)" xlink:href="#av"/><use transform="matrix(0.06362505462173444,0,0,0.06362505462173444,101.0365867393143,0)" xlink:href="#aM"/><use transform="matrix(0.06362505462173444,0,0,0.06362505462173444,113.76159766366119,0)" xlink:href="#au"/><use transform="matrix(0.06362505462173444,0,0,0.06362505462173444,126.48660858800808,0)" xlink:href="#bj"/><use transform="matrix(0.06362505462173444,0,0,0.06362505462173444,134.05799008799448,0)" xlink:href="#au"/><use transform="matrix(0.06362505462173444,0,0,0.06362505462173444,146.78300101234137,0)" xlink:href="#aB"/><use transform="matrix(0.06362505462173444,0,0,0.06362505462173444,159.50801193668826,0)" xlink:href="#aN"/><use transform="matrix(0.06362505462173444,0,0,0.06362505462173444,178.53190326858686,0)" xlink:href="#as"/><use transform="matrix(0.06362505462173444,0,0,0.06362505462173444,191.25691419293375,0)" xlink:href="#bk"/><use transform="matrix(0.06362505462173444,0,0,0.06362505462173444,204.618175663498,0)" xlink:href="#bl"/></g><path fill="#333" d="M101-234c-31-9-42 10-38 44h38v23H63V0H32v-167H5v-23h27c-7-52 17-82 69-68v24" id="bs"/><path fill="#333" d="M206 0h-36l-40-164L89 0H53L-1-190h32L70-26l43-164h34l41 164 42-164h31" id="bt"/><g id="O"><use transform="matrix(0.06362505462173444,0,0,0.06362505462173444,0,0)" xlink:href="#bs"/><use transform="matrix(0.06362505462173444,0,0,0.06362505462173444,6.362505462173444,0)" xlink:href="#aM"/><use transform="matrix(0.06362505462173444,0,0,0.06362505462173444,19.08751638652033,0)" xlink:href="#au"/><use transform="matrix(0.06362505462173444,0,0,0.06362505462173444,31.812527310867218,0)" xlink:href="#av"/><use transform="matrix(0.06362505462173444,0,0,0.06362505462173444,38.17503277304066,0)" xlink:href="#aE"/><use transform="matrix(0.06362505462173444,0,0,0.06362505462173444,50.90004369738755,0)" xlink:href="#aB"/><use transform="matrix(0.06362505462173444,0,0,0.06362505462173444,63.62505462173444,0)" xlink:href="#bt"/><use transform="matrix(0.06362505462173444,0,0,0.06362505462173444,80.10394376876366,0)" xlink:href="#as"/><use transform="matrix(0.06362505462173444,0,0,0.06362505462173444,92.82895469311055,0)" xlink:href="#aI"/><use transform="matrix(0.06362505462173444,0,0,0.06362505462173444,104.28146452502274,0)" xlink:href="#aM"/><use transform="matrix(0.06362505462173444,0,0,0.06362505462173444,117.00647544936963,0)" xlink:href="#aN"/><use transform="matrix(0.06362505462173444,0,0,0.06362505462173444,136.03036678126824,0)" xlink:href="#as"/><use transform="matrix(0.06362505462173444,0,0,0.06362505462173444,148.75537770561513,0)" xlink:href="#aE"/><use transform="matrix(0.06362505462173444,0,0,0.06362505462173444,161.48038862996202,0)" xlink:href="#aG"/><use transform="matrix(0.06362505462173444,0,0,0.06362505462173444,166.50676794507905,0)" xlink:href="#aO"/><use transform="matrix(0.06362505462173444,0,0,0.06362505462173444,177.95927777699126,0)" xlink:href="#aM"/><use transform="matrix(0.06362505462173444,0,0,0.06362505462173444,190.68428870133815,0)" xlink:href="#au"/><use transform="matrix(0.06362505462173444,0,0,0.06362505462173444,203.40929962568504,0)" xlink:href="#aw"/><use transform="matrix(0.06362505462173444,0,0,0.06362505462173444,209.77180508785847,0)" xlink:href="#bi"/><use transform="matrix(0.06362505462173444,0,0,0.06362505462173444,223.1330665584227,0)" xlink:href="#aG"/><use transform="matrix(0.06362505462173444,0,0,0.06362505462173444,228.15944587353974,0)" xlink:href="#aO"/><use transform="matrix(0.06362505462173444,0,0,0.06362505462173444,239.61195570545195,0)" xlink:href="#aM"/><use transform="matrix(0.06362505462173444,0,0,0.06362505462173444,252.33696662979884,0)" xlink:href="#au"/><use transform="matrix(0.06362505462173444,0,0,0.06362505462173444,265.0619775541457,0)" xlink:href="#bj"/><use transform="matrix(0.06362505462173444,0,0,0.06362505462173444,272.6333590541321,0)" xlink:href="#aG"/><use transform="matrix(0.06362505462173444,0,0,0.06362505462173444,277.6597383692491,0)" xlink:href="#aA"/><use transform="matrix(0.06362505462173444,0,0,0.06362505462173444,290.384749293596,0)" xlink:href="#bk"/><use transform="matrix(0.06362505462173444,0,0,0.06362505462173444,303.7460107641602,0)" xlink:href="#bl"/></g><g id="P"><use transform="matrix(0.06362505462173444,0,0,0.06362505462173444,0,0)" xlink:href="#as"/><use transform="matrix(0.06362505462173444,0,0,0.06362505462173444,12.725010924346888,0)" xlink:href="#aH"/><use transform="matrix(0.06362505462173444,0,0,0.06362505462173444,17.75139023946391,0)" xlink:href="#as"/><use transform="matrix(0.06362505462173444,0,0,0.06362505462173444,30.4764011638108,0)" xlink:href="#aN"/><use transform="matrix(0.06362505462173444,0,0,0.06362505462173444,49.500292495709395,0)" xlink:href="#as"/><use transform="matrix(0.06362505462173444,0,0,0.06362505462173444,62.225303420056285,0)" xlink:href="#au"/><use transform="matrix(0.06362505462173444,0,0,0.06362505462173444,74.95031434440317,0)" xlink:href="#av"/><use transform="matrix(0.06362505462173444,0,0,0.06362505462173444,81.31281980657661,0)" xlink:href="#aE"/><use transform="matrix(0.06362505462173444,0,0,0.06362505462173444,94.0378307309235,0)" xlink:href="#aG"/><use transform="matrix(0.06362505462173444,0,0,0.06362505462173444,99.06421004604053,0)" xlink:href="#aA"/><use transform="matrix(0.06362505462173444,0,0,0.06362505462173444,111.78922097038742,0)" xlink:href="#aw"/><use transform="matrix(0.06362505462173444,0,0,0.06362505462173444,118.15172643256086,0)" xlink:href="#bi"/><use transform="matrix(0.06362505462173444,0,0,0.06362505462173444,131.5129879031251,0)" xlink:href="#bp"/><use transform="matrix(0.06362505462173444,0,0,0.06362505462173444,144.23799882747198,0)" xlink:href="#aL"/><use transform="matrix(0.06362505462173444,0,0,0.06362505462173444,156.96300975181887,0)" xlink:href="#av"/><use transform="matrix(0.06362505462173444,0,0,0.06362505462173444,163.3255152139923,0)" xlink:href="#av"/><use transform="matrix(0.06362505462173444,0,0,0.06362505462173444,169.68802067616573,0)" xlink:href="#aM"/><use transform="matrix(0.06362505462173444,0,0,0.06362505462173444,182.41303160051262,0)" xlink:href="#au"/><use transform="matrix(0.06362505462173444,0,0,0.06362505462173444,195.13804252485951,0)" xlink:href="#bj"/><use transform="matrix(0.06362505462173444,0,0,0.06362505462173444,202.7094240248459,0)" xlink:href="#aG"/><use transform="matrix(0.06362505462173444,0,0,0.06362505462173444,207.73580333996293,0)" xlink:href="#aA"/><use transform="matrix(0.06362505462173444,0,0,0.06362505462173444,220.46081426430982,0)" xlink:href="#bk"/><use transform="matrix(0.06362505462173444,0,0,0.06362505462173444,233.82207573487406,0)" xlink:href="#aJ"/></g><g id="Q"><use transform="matrix(0.06362505462173444,0,0,0.06362505462173444,0,0)" xlink:href="#aK"/><use transform="matrix(0.06362505462173444,0,0,0.06362505462173444,16.47888914702922,0)" xlink:href="#aL"/><use transform="matrix(0.06362505462173444,0,0,0.06362505462173444,29.20390007137611,0)" xlink:href="#aI"/><use transform="matrix(0.06362505462173444,0,0,0.06362505462173444,40.656409903288306,0)" xlink:href="#av"/><use transform="matrix(0.06362505462173444,0,0,0.06362505462173444,47.01891536546175,0)" xlink:href="#aM"/><use transform="matrix(0.06362505462173444,0,0,0.06362505462173444,59.74392628980864,0)" xlink:href="#aN"/></g><g id="R"><use transform="matrix(0.06362505462173444,0,0,0.06362505462173444,0,0)" xlink:href="#bp"/><use transform="matrix(0.06362505462173444,0,0,0.06362505462173444,12.725010924346888,0)" xlink:href="#aL"/><use transform="matrix(0.06362505462173444,0,0,0.06362505462173444,25.450021848693776,0)" xlink:href="#av"/><use transform="matrix(0.06362505462173444,0,0,0.06362505462173444,31.81252731086722,0)" xlink:href="#av"/><use transform="matrix(0.06362505462173444,0,0,0.06362505462173444,38.17503277304066,0)" xlink:href="#aM"/><use transform="matrix(0.06362505462173444,0,0,0.06362505462173444,50.90004369738755,0)" xlink:href="#au"/></g></defs></g></svg>