<svg xmlns="http://www.w3.org/2000/svg" xmlns:xlink="http://www.w3.org/1999/xlink" xmlns:lucid="lucid" width="1338" height="863"><g transform="translate(-84 0)" lucid:page-tab-id="0_0"><path d="M740 216.23v10.24m0 10.23v20.47m0 10.23v20.46m0 10.24v20.46m0 10.23v20.46m0 10.23v20.46m0 10.23v20.46m0 10.23v20.45m0 10.24v20.45m0 10.24v20.45m0 10.23v20.47m0 10.23v20.47m0 10.23v20.47m0 10.23v20.46m0 10.24v20.46m0 10.23v20.47m0 10.23v20.47m0 10.23v20.47m0 10.23v20.46m0 10.24v10.23M740 216.25v-3.52M740 799.5v.5" stroke="#333" fill="none"/><path d="M720 446.33c0-4.42 3.58-8 8-8h24c4.42 0 8 3.58 8 8v104c0 4.42-3.58 8-8 8h-24c-4.42 0-8-3.58-8-8z" stroke="#f2f2f2" fill="#ced4db"/><path d="M1120 216.23v10.24m0 10.23v20.47m0 10.23v20.46m0 10.24v20.46m0 10.23v20.46m0 10.23v20.46m0 10.23v20.46m0 10.23v20.45m0 10.24v20.45m0 10.24v20.45m0 10.23v20.47m0 10.23v20.47m0 10.23v20.47m0 10.23v20.46m0 10.24v20.46m0 10.23v20.47m0 10.23v20.47m0 10.23v20.47m0 10.23v20.46m0 10.24v10.23M1120 216.25v-3.52M1120 799.5v.5" stroke="#333" fill="none"/><path d="M1100 466.33c0-4.42 3.58-8 8-8h24c4.42 0 8 3.58 8 8v144c0 4.42-3.58 8-8 8h-24c-4.42 0-8-3.58-8-8z" stroke="#f2f2f2" fill="#ced4db"/><path d="M399.75 142.28c0 10.9-8.84 19.75-19.75 19.75-10.9 0-19.75-8.84-19.75-19.75 0-10.9 8.84-19.75 19.75-19.75 10.9 0 19.75 8.84 19.75 19.75z" stroke="#333" fill="#fff"/><path d="M380 162.03v47.3c0 4.42 1.92 11.03 4.28 14.76L420 280.52m-40-63.2l-40 63.2m0-98.75h80" stroke="#333" fill="none"/><path d="M340 130.53c0-4.42 3.58-8 8-8h64c4.42 0 8 3.58 8 8v164c0 4.42-3.58 8-8 8h-64c-4.42 0-8-3.58-8-8z" fill="none"/><path d="M380.5 799.5h-1v-10.2h1zm0-20.38h-1v-20.37h1zm0-30.56h-1v-20.38h1zm0-30.57h-1V697.6h1zm0-30.57h-1v-20.38h1zm0-30.57h-1V636.5h1zm0-30.56h-1v-20.38h1zm0-30.57h-1v-20.37h1zm0-30.56h-1V544.8h1zm0-30.57h-1v-20.37h1zm0-30.56h-1v-20.38h1zm0-30.57h-1V453.1h1zm0-30.56h-1v-20.37h1zm0-30.56h-1v-20.37h1zm0-30.56h-1V361.4h1zm0-30.57h-1v-20.36h1zm0-30.55h-1v-20.38h1zm0-30.56h-1v-20.4h1zm0-30.58h-1v-20.38h1zm0-30.56h-1v-10.2h1z" stroke="#333" stroke-width=".05" fill="#333"/><path d="M380.5 218.78h-1v-3.5h1zM380.5 800h-1v-.5h1z" stroke="#333" stroke-width=".05" fill="#333"/><use xlink:href="#a" transform="matrix(1,0,0,1,380,248.768212063239) translate(0.005 14.4)"/><path d="M380.5 494h322.62M380.5 494h-.5" stroke="#333" fill="none"/><path d="M717.88 494l-14.26 4.63v-9.27z" stroke="#333" fill="#333"/><path d="M761 533.33h322.12" stroke="#333" fill="none"/><path d="M761 533.83h-.5v-1h.5z" stroke="#333" stroke-width=".05" fill="#333"/><path d="M1097.88 533.33l-14.26 4.64v-9.27z" stroke="#333" fill="#333"/><path d="M300 91.06c0-4.4 3.58-8 8-8h144c4.42 0 8 3.6 8 8v23.47c0 4.42-3.58 8-8 8H308c-4.42 0-8-3.58-8-8z" stroke="#000" stroke-opacity="0" fill="#fff" fill-opacity="0"/><use xlink:href="#b" transform="matrix(1,0,0,1,305,88.06397682300269) translate(56.05 18.15)"/><path d="M759.75 139.75c0 10.9-8.84 19.75-19.75 19.75-10.9 0-19.75-8.84-19.75-19.75 0-10.9 8.84-19.75 19.75-19.75 10.9 0 19.75 8.84 19.75 19.75z" stroke="#333" fill="#fff"/><path d="M740 159.5v47.3c0 4.42 1.92 11.03 4.28 14.76L780 278m-40-63.2L700 278m0-98.75h80" stroke="#333" fill="none"/><path d="M700 128c0-4.42 3.58-8 8-8h64c4.42 0 8 3.58 8 8v164c0 4.42-3.58 8-8 8h-64c-4.42 0-8-3.58-8-8z" fill="none"/><path d="M1000 70.53c0-4.42 3.58-8 8-8h224c4.42 0 8 3.58 8 8v44c0 4.42-3.58 8-8 8h-224c-4.42 0-8-3.58-8-8z" stroke="#000" stroke-opacity="0" fill="#fff" fill-opacity="0"/><use xlink:href="#c" transform="matrix(1,0,0,1,1005,67.53198841150136) translate(79.525 30.025)"/><use xlink:href="#d" transform="matrix(1,0,0,1,1005,67.53198841150136) translate(108.47500000000001 30.025)"/><path d="M1139.75 139.75c0 10.9-8.84 19.75-19.75 19.75-10.9 0-19.75-8.84-19.75-19.75 0-10.9 8.84-19.75 19.75-19.75 10.9 0 19.75 8.84 19.75 19.75z" stroke="#333" fill="#fff"/><path d="M1120 159.5v47.3c0 4.42 1.92 11.03 4.28 14.76L1160 278m-40-63.2l-40 63.2m0-98.75h80" stroke="#333" fill="none"/><path d="M1080 128c0-4.42 3.58-8 8-8h64c4.42 0 8 3.58 8 8v164c0 4.42-3.58 8-8 8h-64c-4.42 0-8-3.58-8-8z" fill="none"/><path d="M620 80.8c0-4.42 3.58-8 8-8h224c4.42 0 8 3.58 8 8v44c0 4.42-3.58 8-8 8H628c-4.42 0-8-3.58-8-8z" stroke="#000" stroke-opacity="0" fill="#fff" fill-opacity="0"/><use xlink:href="#e" transform="matrix(1,0,0,1,625,77.79798261725202) translate(90.05 30.025)"/><path d="M360 332.86c0-4.42 3.58-8 8-8h24c4.42 0 8 3.58 8 8V392c0 4.42-3.58 8-8 8h-24c-4.42 0-8-3.58-8-8z" stroke="#f2f2f2" fill="#ced4db"/><path d="M180 340.43c0-4.42 3.58-8 8-8h224c4.42 0 8 3.58 8 8v44c0 4.42-3.58 8-8 8H188c-4.42 0-8-3.58-8-8z" stroke="#000" stroke-opacity="0" fill="#fff" fill-opacity="0"/><use xlink:href="#f" transform="matrix(1,0,0,1,185,337.43151105037) translate(63.7 30.025)"/><use xlink:href="#g" transform="matrix(1,0,0,1,185,337.43151105037) translate(129.7 30.025)"/><path d="M480 288c0-4.42 3.58-8 8-8h144c4.42 0 8 3.58 8 8v121.47c0 4.42-3.58 8-8 8H488c-4.42 0-8-3.58-8-8z" stroke="#333" fill="#fff"/><use xlink:href="#h" transform="matrix(1,0,0,1,485,285) translate(12.125 58.4)"/><use xlink:href="#i" transform="matrix(1,0,0,1,485,285) translate(55.025000000000006 58.4)"/><use xlink:href="#j" transform="matrix(1,0,0,1,485,285) translate(50.525 80)"/><path d="M1160 466.33c0-4.42 3.58-8 8-8h123.76c4.42 0 8 3.58 8 8v56c0 4.42-3.58 8-8 8H1168c-4.42 0-8-3.58-8-8z" stroke="#000" stroke-opacity="0" fill="#fff" fill-opacity="0"/><g><use xlink:href="#k" transform="matrix(1,0,0,1,1165,463.331664899885) translate(5.549999999999997 34.0875)"/><use xlink:href="#l" transform="matrix(1,0,0,1,1165,463.331664899885) translate(52.55 34.0875)"/></g><path d="M817.47 271.42c0-4.42 3.58-8 8-8h209.06c4.42 0 8 3.58 8 8v182.02c0 4.42-3.58 8-8 8H825.47c-4.42 0-8-3.58-8-8z" stroke="#282c33" fill="#fff"/><g><use xlink:href="#m" transform="matrix(1,0,0,1,822.4701056536883,268.4207504463989) translate(0 14.4)"/><use xlink:href="#n" transform="matrix(1,0,0,1,822.4701056536883,268.4207504463989) translate(0 36)"/><use xlink:href="#o" transform="matrix(1,0,0,1,822.4701056536883,268.4207504463989) translate(20 36)"/><use xlink:href="#p" transform="matrix(1,0,0,1,822.4701056536883,268.4207504463989) translate(74 36)"/><use xlink:href="#q" transform="matrix(1,0,0,1,822.4701056536883,268.4207504463989) translate(0 58.844480000000004)"/><use xlink:href="#r" transform="matrix(1,0,0,1,822.4701056536883,268.4207504463989) translate(21.72844444444445 58.844480000000004)"/><use xlink:href="#s" transform="matrix(1,0,0,1,822.4701056536883,268.4207504463989) translate(0 80.88890666666666)"/><use xlink:href="#t" transform="matrix(1,0,0,1,822.4701056536883,268.4207504463989) translate(44.44433333333332 80.88890666666666)"/><use xlink:href="#u" transform="matrix(1,0,0,1,822.4701056536883,268.4207504463989) translate(0 105.42223999999999)"/><use xlink:href="#v" transform="matrix(1,0,0,1,822.4701056536883,268.4207504463989) translate(44.44433333333332 105.42223999999999)"/><use xlink:href="#s" transform="matrix(1,0,0,1,822.4701056536883,268.4207504463989) translate(0 129.95557333333332)"/><use xlink:href="#w" transform="matrix(1,0,0,1,822.4701056536883,268.4207504463989) translate(44.44433333333332 129.95557333333332)"/><use xlink:href="#u" transform="matrix(1,0,0,1,822.4701056536883,268.4207504463989) translate(0 154.48890666666665)"/><use xlink:href="#x" transform="matrix(1,0,0,1,822.4701056536883,268.4207504463989) translate(44.44433333333332 154.48890666666665)"/><use xlink:href="#y" transform="matrix(1,0,0,1,822.4701056536883,268.4207504463989) translate(0 179.20005333333333)"/></g><defs><path fill="#333" d="M232-93c-1 65-40 97-104 97C67 4 28-28 28-90v-158h33c8 89-33 224 67 224 102 0 64-133 71-224h33v155" id="z"/><path fill="#333" d="M135-143c-3-34-86-38-87 0 15 53 115 12 119 90S17 21 10-45l28-5c4 36 97 45 98 0-10-56-113-15-118-90-4-57 82-63 122-42 12 7 21 19 24 35" id="A"/><path fill="#333" d="M100-194c63 0 86 42 84 106H49c0 40 14 67 53 68 26 1 43-12 49-29l28 8c-11 28-37 45-77 45C44 4 14-33 15-96c1-61 26-98 85-98zm52 81c6-60-76-77-97-28-3 7-6 17-6 28h103" id="B"/><path fill="#333" d="M114-163C36-179 61-72 57 0H25l-1-190h30c1 12-1 29 2 39 6-27 23-49 58-41v29" id="C"/><g id="b"><use transform="matrix(0.05,0,0,0.05,0,0)" xlink:href="#z"/><use transform="matrix(0.05,0,0,0.05,12.950000000000001,0)" xlink:href="#A"/><use transform="matrix(0.05,0,0,0.05,21.950000000000003,0)" xlink:href="#B"/><use transform="matrix(0.05,0,0,0.05,31.950000000000003,0)" xlink:href="#C"/></g><path fill="#333" d="M33 0v-248h34V0H33" id="D"/><path fill="#333" d="M117-194c89-4 53 116 60 194h-32v-121c0-31-8-49-39-48C34-167 62-67 57 0H25l-1-190h30c1 10-1 24 2 32 11-22 29-35 61-36" id="E"/><path fill="#333" d="M24-231v-30h32v30H24zM24 0v-190h32V0H24" id="F"/><path fill="#333" d="M59-47c-2 24 18 29 38 22v24C64 9 27 4 27-40v-127H5v-23h24l9-43h21v43h35v23H59v120" id="G"/><g id="c"><use transform="matrix(0.05,0,0,0.05,0,0)" xlink:href="#D"/><use transform="matrix(0.05,0,0,0.05,5,0)" xlink:href="#E"/><use transform="matrix(0.05,0,0,0.05,15,0)" xlink:href="#F"/><use transform="matrix(0.05,0,0,0.05,18.95,0)" xlink:href="#G"/></g><path fill="#333" d="M30-248c87 1 191-15 191 75 0 78-77 80-158 76V0H30v-248zm33 125c57 0 124 11 124-50 0-59-68-47-124-48v98" id="H"/><path fill="#333" d="M141-36C126-15 110 5 73 4 37 3 15-17 15-53c-1-64 63-63 125-63 3-35-9-54-41-54-24 1-41 7-42 31l-33-3c5-37 33-52 76-52 45 0 72 20 72 64v82c-1 20 7 32 28 27v20c-31 9-61-2-59-35zM48-53c0 20 12 33 32 33 41-3 63-29 60-74-43 2-92-5-92 41" id="I"/><path fill="#333" d="M177-190C167-65 218 103 67 71c-23-6-38-20-44-43l32-5c15 47 100 32 89-28v-30C133-14 115 1 83 1 29 1 15-40 15-95c0-56 16-97 71-98 29-1 48 16 59 35 1-10 0-23 2-32h30zM94-22c36 0 50-32 50-73 0-42-14-75-50-75-39 0-46 34-46 75s6 73 46 73" id="J"/><g id="d"><use transform="matrix(0.05,0,0,0.05,0,0)" xlink:href="#H"/><use transform="matrix(0.05,0,0,0.05,12,0)" xlink:href="#I"/><use transform="matrix(0.05,0,0,0.05,22,0)" xlink:href="#J"/><use transform="matrix(0.05,0,0,0.05,32,0)" xlink:href="#B"/></g><path fill="#333" d="M24 0v-261h32V0H24" id="K"/><path fill="#333" d="M84 4C-5 8 30-112 23-190h32v120c0 31 7 50 39 49 72-2 45-101 50-169h31l1 190h-30c-1-10 1-25-2-33-11 22-28 36-60 37" id="L"/><g id="e"><use transform="matrix(0.05,0,0,0.05,0,0)" xlink:href="#H"/><use transform="matrix(0.05,0,0,0.05,12,0)" xlink:href="#K"/><use transform="matrix(0.05,0,0,0.05,15.949999999999998,0)" xlink:href="#L"/><use transform="matrix(0.05,0,0,0.05,25.950000000000003,0)" xlink:href="#J"/><use transform="matrix(0.05,0,0,0.05,35.95,0)" xlink:href="#F"/><use transform="matrix(0.05,0,0,0.05,39.900000000000006,0)" xlink:href="#E"/></g><path fill="#333" d="M160-131c35 5 61 23 61 61C221 17 115-2 30 0v-248c76 3 177-17 177 60 0 33-19 50-47 57zm-97-11c50-1 110 9 110-42 0-47-63-36-110-37v79zm0 115c55-2 124 14 124-45 0-56-70-42-124-44v89" id="M"/><path fill="#333" d="M96-169c-40 0-48 33-48 73s9 75 48 75c24 0 41-14 43-38l32 2c-6 37-31 61-74 61-59 0-76-41-82-99-10-93 101-131 147-64 4 7 5 14 7 22l-32 3c-4-21-16-35-41-35" id="N"/><path fill="#333" d="M100-194c62-1 85 37 85 99 1 63-27 99-86 99S16-35 15-95c0-66 28-99 85-99zM99-20c44 1 53-31 53-75 0-43-8-75-51-75s-53 32-53 75 10 74 51 75" id="O"/><g id="f"><use transform="matrix(0.05,0,0,0.05,0,0)" xlink:href="#M"/><use transform="matrix(0.05,0,0,0.05,12,0)" xlink:href="#B"/><use transform="matrix(0.05,0,0,0.05,22,0)" xlink:href="#I"/><use transform="matrix(0.05,0,0,0.05,32,0)" xlink:href="#N"/><use transform="matrix(0.05,0,0,0.05,41,0)" xlink:href="#O"/><use transform="matrix(0.05,0,0,0.05,51,0)" xlink:href="#E"/></g><path fill="#333" d="M266 0h-40l-56-210L115 0H75L2-248h35L96-30l15-64 43-154h32l59 218 59-218h35" id="P"/><path fill="#333" d="M115-194c53 0 69 39 70 98 0 66-23 100-70 100C84 3 66-7 56-30L54 0H23l1-261h32v101c10-23 28-34 59-34zm-8 174c40 0 45-34 45-75 0-40-5-75-45-74-42 0-51 32-51 76 0 43 10 73 51 73" id="Q"/><g id="g"><use transform="matrix(0.05,0,0,0.05,0,0)" xlink:href="#P"/><use transform="matrix(0.05,0,0,0.05,16.599999999999998,0)" xlink:href="#B"/><use transform="matrix(0.05,0,0,0.05,26.599999999999994,0)" xlink:href="#Q"/></g><g id="h"><use transform="matrix(0.05,0,0,0.05,0,0)" xlink:href="#z"/><use transform="matrix(0.05,0,0,0.05,12.950000000000001,0)" xlink:href="#A"/><use transform="matrix(0.05,0,0,0.05,21.950000000000003,0)" xlink:href="#B"/><use transform="matrix(0.05,0,0,0.05,31.950000000000003,0)" xlink:href="#C"/></g><g id="i"><use transform="matrix(0.05,0,0,0.05,0,0)" xlink:href="#F"/><use transform="matrix(0.05,0,0,0.05,3.95,0)" xlink:href="#E"/><use transform="matrix(0.05,0,0,0.05,13.949999999999998,0)" xlink:href="#G"/><use transform="matrix(0.05,0,0,0.05,18.95,0)" xlink:href="#B"/><use transform="matrix(0.05,0,0,0.05,28.950000000000003,0)" xlink:href="#C"/><use transform="matrix(0.05,0,0,0.05,34.9,0)" xlink:href="#I"/><use transform="matrix(0.05,0,0,0.05,44.9,0)" xlink:href="#N"/><use transform="matrix(0.05,0,0,0.05,53.900000000000006,0)" xlink:href="#G"/><use transform="matrix(0.05,0,0,0.05,58.900000000000006,0)" xlink:href="#F"/><use transform="matrix(0.05,0,0,0.05,62.85,0)" xlink:href="#O"/><use transform="matrix(0.05,0,0,0.05,72.85,0)" xlink:href="#E"/></g><g id="j"><use transform="matrix(0.05,0,0,0.05,0,0)" xlink:href="#K"/><use transform="matrix(0.05,0,0,0.05,3.95,0)" xlink:href="#O"/><use transform="matrix(0.05,0,0,0.05,13.949999999999998,0)" xlink:href="#J"/><use transform="matrix(0.05,0,0,0.05,23.95,0)" xlink:href="#O"/><use transform="matrix(0.05,0,0,0.05,33.95,0)" xlink:href="#L"/><use transform="matrix(0.05,0,0,0.05,43.95,0)" xlink:href="#G"/></g><g id="k"><use transform="matrix(0.05,0,0,0.05,0,0)" xlink:href="#H"/><use transform="matrix(0.05,0,0,0.05,12,0)" xlink:href="#I"/><use transform="matrix(0.05,0,0,0.05,22,0)" xlink:href="#J"/><use transform="matrix(0.05,0,0,0.05,32,0)" xlink:href="#B"/></g><path fill="#333" d="M85-194c31 0 48 13 60 33l-1-100h32l1 261h-30c-2-10 0-23-3-31C134-8 116 4 85 4 32 4 16-35 15-94c0-66 23-100 70-100zm9 24c-40 0-46 34-46 75 0 40 6 74 45 74 42 0 51-32 51-76 0-42-9-74-50-73" id="R"/><g id="l"><use transform="matrix(0.05,0,0,0.05,0,0)" xlink:href="#C"/><use transform="matrix(0.05,0,0,0.05,5.95,0)" xlink:href="#B"/><use transform="matrix(0.05,0,0,0.05,15.949999999999998,0)" xlink:href="#E"/><use transform="matrix(0.05,0,0,0.05,25.950000000000003,0)" xlink:href="#R"/><use transform="matrix(0.05,0,0,0.05,35.95,0)" xlink:href="#B"/><use transform="matrix(0.05,0,0,0.05,45.95,0)" xlink:href="#C"/><use transform="matrix(0.05,0,0,0.05,51.900000000000006,0)" xlink:href="#B"/><use transform="matrix(0.05,0,0,0.05,61.900000000000006,0)" xlink:href="#R"/></g><path fill="#333" d="M39-94c74 12-11 154 75 146v23c-44 4-70-10-70-52C44-23 55-84 6-82v-22c81 4-7-162 84-157h24v23c-82-15-2 131-75 144" id="S"/><use transform="matrix(0.05,0,0,0.05,0,0)" xlink:href="#S" id="m"/><path fill="#333" d="M108 0H70L1-190h34L89-25l56-165h34" id="T"/><path fill="#333" d="M33-154v-36h34v36H33zM33 0v-36h34V0H33" id="U"/><g id="o"><use transform="matrix(0.05,0,0,0.05,0,0)" xlink:href="#B"/><use transform="matrix(0.05,0,0,0.05,10,0)" xlink:href="#T"/><use transform="matrix(0.05,0,0,0.05,19,0)" xlink:href="#B"/><use transform="matrix(0.05,0,0,0.05,29,0)" xlink:href="#E"/><use transform="matrix(0.05,0,0,0.05,39,0)" xlink:href="#G"/><use transform="matrix(0.05,0,0,0.05,44,0)" xlink:href="#U"/></g><path fill="#333" d="M85 4C-2 5 27-109 22-190h50c7 57-23 150 33 157 60-5 35-97 40-157h50l1 190h-47c-2-12 1-28-3-38-12 25-28 42-61 42" id="V"/><path fill="#333" d="M137-138c1-29-70-34-71-4 15 46 118 7 119 86 1 83-164 76-172 9l43-7c4 19 20 25 44 25 33 8 57-30 24-41C81-84 22-81 20-136c-2-80 154-74 161-7" id="W"/><path fill="#333" d="M185-48c-13 30-37 53-82 52C43 2 14-33 14-96s30-98 90-98c62 0 83 45 84 108H66c0 31 8 55 39 56 18 0 30-7 34-22zm-45-69c5-46-57-63-70-21-2 6-4 13-4 21h74" id="X"/><path fill="#333" d="M135-150c-39-12-60 13-60 57V0H25l-1-190h47c2 13-1 29 3 40 6-28 27-53 61-41v41" id="Y"/><path fill="#333" d="M24-248c120-7 223 5 221 122C244-46 201 0 124 0H24v-248zM76-40c74 7 117-18 117-86 0-67-45-88-117-82v168" id="Z"/><path fill="#333" d="M25-224v-37h50v37H25zM25 0v-190h50V0H25" id="aa"/><path fill="#333" d="M88-194c31-1 46 15 58 34l-1-101h50l1 261h-48c-2-10 0-23-3-31C134-8 116 4 84 4 32 4 16-41 15-95c0-56 19-97 73-99zm17 164c33 0 40-30 41-66 1-37-9-64-41-64s-38 30-39 65c0 43 13 65 39 65" id="ab"/><path fill="#333" d="M169-182c-1-43-94-46-97-3 18 66 151 10 154 114 3 95-165 93-204 36-6-8-10-19-12-30l50-8c3 46 112 56 116 5-17-69-150-10-154-114-4-87 153-88 188-35 5 8 8 18 10 28" id="ac"/><path fill="#333" d="M195-6C206 82 75 100 31 46c-4-6-6-13-8-21l49-6c3 16 16 24 34 25 40 0 42-37 40-79-11 22-30 35-61 35-53 0-70-43-70-97 0-56 18-96 73-97 30 0 46 14 59 34l2-30h47zm-90-29c32 0 41-27 41-63 0-35-9-62-40-62-32 0-39 29-40 63 0 36 9 62 39 62" id="ad"/><path fill="#333" d="M135-194c87-1 58 113 63 194h-50c-7-57 23-157-34-157-59 0-34 97-39 157H25l-1-190h47c2 12-1 28 3 38 12-26 28-41 61-42" id="ae"/><path fill="#333" d="M140-251c80 0 125 45 125 126S219 4 139 4C58 4 15-44 15-125s44-126 125-126zm-1 214c52 0 73-35 73-88 0-50-21-86-72-86-52 0-73 35-73 86s22 88 72 88" id="af"/><path fill="#333" d="M115-3C79 11 28 4 28-45v-112H4v-33h27l15-45h31v45h36v33H77v99c-1 23 16 31 38 25v30" id="ag"/><g id="p"><use transform="matrix(0.05,0,0,0.05,0,0)" xlink:href="#V"/><use transform="matrix(0.05,0,0,0.05,10.950000000000001,0)" xlink:href="#W"/><use transform="matrix(0.05,0,0,0.05,20.950000000000003,0)" xlink:href="#X"/><use transform="matrix(0.05,0,0,0.05,30.950000000000003,0)" xlink:href="#Y"/><use transform="matrix(0.05,0,0,0.05,37.95,0)" xlink:href="#Z"/><use transform="matrix(0.05,0,0,0.05,50.900000000000006,0)" xlink:href="#aa"/><use transform="matrix(0.05,0,0,0.05,55.900000000000006,0)" xlink:href="#ab"/><use transform="matrix(0.05,0,0,0.05,66.85000000000001,0)" xlink:href="#ac"/><use transform="matrix(0.05,0,0,0.05,78.85000000000001,0)" xlink:href="#aa"/><use transform="matrix(0.05,0,0,0.05,83.85000000000001,0)" xlink:href="#ad"/><use transform="matrix(0.05,0,0,0.05,94.80000000000001,0)" xlink:href="#ae"/><use transform="matrix(0.05,0,0,0.05,105.75,0)" xlink:href="#af"/><use transform="matrix(0.05,0,0,0.05,119.75,0)" xlink:href="#V"/><use transform="matrix(0.05,0,0,0.05,130.70000000000002,0)" xlink:href="#ag"/></g><path fill="#282c33" d="M88-194c31-1 46 15 58 34l-1-101h50l1 261h-48c-2-10 0-23-3-31C134-8 116 4 84 4 32 4 16-41 15-95c0-56 19-97 73-99zm17 164c33 0 40-30 41-66 1-37-9-64-41-64s-38 30-39 65c0 43 13 65 39 65" id="ah"/><path fill="#282c33" d="M133-34C117-15 103 5 69 4 32 3 11-16 11-54c-1-60 55-63 116-61 1-26-3-47-28-47-18 1-26 9-28 27l-52-2c7-38 36-58 82-57s74 22 75 68l1 82c-1 14 12 18 25 15v27c-30 8-71 5-69-32zm-48 3c29 0 43-24 42-57-32 0-66-3-65 30 0 17 8 27 23 27" id="ai"/><path fill="#282c33" d="M115-3C79 11 28 4 28-45v-112H4v-33h27l15-45h31v45h36v33H77v99c-1 23 16 31 38 25v30" id="aj"/><path fill="#282c33" d="M35-132v-50h50v50H35zM35 0v-49h50V0H35" id="ak"/><path d="M39-94c74 12-11 154 75 146v23c-44 4-70-10-70-52C44-23 55-84 6-82v-22c81 4-7-162 84-157h24v23c-82-15-2 131-75 144" id="al"/><g id="r"><use transform="matrix(0.05432111111111112,0,0,0.05432111111111112,0,0)" xlink:href="#ah"/><use transform="matrix(0.05432111111111112,0,0,0.05432111111111112,11.896323333333335,0)" xlink:href="#ai"/><use transform="matrix(0.05432111111111112,0,0,0.05432111111111112,22.76054555555556,0)" xlink:href="#aj"/><use transform="matrix(0.05432111111111112,0,0,0.05432111111111112,29.224757777777782,0)" xlink:href="#ai"/><use transform="matrix(0.05432111111111112,0,0,0.05432111111111112,40.08898000000001,0)" xlink:href="#ak"/><use transform="matrix(0.04938259259259258,0,0,0.04938259259259258,46.55319222222223,0)" xlink:href="#al"/></g><path d="M133-34C117-15 103 5 69 4 32 3 11-16 11-54c-1-60 55-63 116-61 1-26-3-47-28-47-18 1-26 9-28 27l-52-2c7-38 36-58 82-57s74 22 75 68l1 82c-1 14 12 18 25 15v27c-30 8-71 5-69-32zm-48 3c29 0 43-24 42-57-32 0-66-3-65 30 0 17 8 27 23 27" id="am"/><path d="M190-63c-7 42-38 67-86 67-59 0-84-38-90-98-12-110 154-137 174-36l-49 2c-2-19-15-32-35-32-30 0-35 28-38 64-6 74 65 87 74 30" id="an"/><path d="M110-194c64 0 96 36 96 99 0 64-35 99-97 99-61 0-95-36-95-99 0-62 34-99 96-99zm-1 164c35 0 45-28 45-65 0-40-10-65-43-65-34 0-45 26-45 65 0 36 10 65 43 65" id="ao"/><path d="M85 4C-2 5 27-109 22-190h50c7 57-23 150 33 157 60-5 35-97 40-157h50l1 190h-47c-2-12 1-28-3-38-12 25-28 42-61 42" id="ap"/><path d="M135-194c87-1 58 113 63 194h-50c-7-57 23-157-34-157-59 0-34 97-39 157H25l-1-190h47c2 12-1 28 3 38 12-26 28-41 61-42" id="aq"/><path d="M115-3C79 11 28 4 28-45v-112H4v-33h27l15-45h31v45h36v33H77v99c-1 23 16 31 38 25v30" id="ar"/><path d="M-4 44V30h207v14H-4" id="as"/><path d="M147 0L96-86 75-71V0H25v-261h50v150l67-79h53l-66 74L201 0h-54" id="at"/><path d="M185-48c-13 30-37 53-82 52C43 2 14-33 14-96s30-98 90-98c62 0 83 45 84 108H66c0 31 8 55 39 56 18 0 30-7 34-22zm-45-69c5-46-57-63-70-21-2 6-4 13-4 21h74" id="au"/><path d="M33-154v-36h34v36H33zM33 0v-36h34V0H33" id="av"/><g id="t"><use transform="matrix(0.04938259259259258,0,0,0.04938259259259258,0,0)" xlink:href="#am"/><use transform="matrix(0.04938259259259258,0,0,0.04938259259259258,9.876518518518516,0)" xlink:href="#an"/><use transform="matrix(0.04938259259259258,0,0,0.04938259259259258,19.753037037037032,0)" xlink:href="#an"/><use transform="matrix(0.04938259259259258,0,0,0.04938259259259258,29.629555555555548,0)" xlink:href="#ao"/><use transform="matrix(0.04938259259259258,0,0,0.04938259259259258,40.44434333333332,0)" xlink:href="#ap"/><use transform="matrix(0.04938259259259258,0,0,0.04938259259259258,51.2591311111111,0)" xlink:href="#aq"/><use transform="matrix(0.04938259259259258,0,0,0.04938259259259258,62.07391888888886,0)" xlink:href="#ar"/><use transform="matrix(0.04938259259259258,0,0,0.04938259259259258,67.95044740740738,0)" xlink:href="#as"/><use transform="matrix(0.04938259259259258,0,0,0.04938259259259258,77.82696592592589,0)" xlink:href="#ar"/><use transform="matrix(0.04938259259259258,0,0,0.04938259259259258,83.7034944444444,0)" xlink:href="#ao"/><use transform="matrix(0.04938259259259258,0,0,0.04938259259259258,94.51828222222218,0)" xlink:href="#at"/><use transform="matrix(0.04938259259259258,0,0,0.04938259259259258,104.39480074074069,0)" xlink:href="#au"/><use transform="matrix(0.04938259259259258,0,0,0.04938259259259258,114.27131925925919,0)" xlink:href="#aq"/><use transform="matrix(0.04938259259259258,0,0,0.04938259259259258,125.08610703703698,0)" xlink:href="#av"/></g><path d="M137-138c1-29-70-34-71-4 15 46 118 7 119 86 1 83-164 76-172 9l43-7c4 19 20 25 44 25 33 8 57-30 24-41C81-84 22-81 20-136c-2-80 154-74 161-7" id="aw"/><path d="M135-150c-39-12-60 13-60 57V0H25l-1-190h47c2 13-1 29 3 40 6-28 27-53 61-41v41" id="ax"/><path d="M220-157c-53 9-28 100-34 157h-49v-107c1-27-5-49-29-50C55-147 81-57 75 0H25l-1-190h47c2 12-1 28 3 38 10-53 101-56 108 0 13-22 24-43 59-42 82 1 51 116 57 194h-49v-107c-1-25-5-48-29-50" id="ay"/><g id="v"><use transform="matrix(0.04938259259259258,0,0,0.04938259259259258,0,0)" xlink:href="#ap"/><use transform="matrix(0.04938259259259258,0,0,0.04938259259259258,10.814787777777775,0)" xlink:href="#aw"/><use transform="matrix(0.04938259259259258,0,0,0.04938259259259258,20.69130629629629,0)" xlink:href="#au"/><use transform="matrix(0.04938259259259258,0,0,0.04938259259259258,30.56782481481481,0)" xlink:href="#ax"/><use transform="matrix(0.04938259259259258,0,0,0.04938259259259258,37.48138777777777,0)" xlink:href="#as"/><use transform="matrix(0.04938259259259258,0,0,0.04938259259259258,47.357906296296285,0)" xlink:href="#aq"/><use transform="matrix(0.04938259259259258,0,0,0.04938259259259258,58.17269407407406,0)" xlink:href="#am"/><use transform="matrix(0.04938259259259258,0,0,0.04938259259259258,68.04921259259257,0)" xlink:href="#ay"/><use transform="matrix(0.04938259259259258,0,0,0.04938259259259258,83.8516422222222,0)" xlink:href="#au"/><use transform="matrix(0.04938259259259258,0,0,0.04938259259259258,93.72816074074072,0)" xlink:href="#av"/></g><path d="M25-224v-37h50v37H25zM25 0v-190h50V0H25" id="az"/><path d="M25 0v-261h50V0H25" id="aA"/><g id="w"><use transform="matrix(0.04938259259259258,0,0,0.04938259259259258,0,0)" xlink:href="#ap"/><use transform="matrix(0.04938259259259258,0,0,0.04938259259259258,10.814787777777775,0)" xlink:href="#aw"/><use transform="matrix(0.04938259259259258,0,0,0.04938259259259258,20.69130629629629,0)" xlink:href="#au"/><use transform="matrix(0.04938259259259258,0,0,0.04938259259259258,30.56782481481481,0)" xlink:href="#ax"/><use transform="matrix(0.04938259259259258,0,0,0.04938259259259258,37.48138777777777,0)" xlink:href="#as"/><use transform="matrix(0.04938259259259258,0,0,0.04938259259259258,47.357906296296285,0)" xlink:href="#au"/><use transform="matrix(0.04938259259259258,0,0,0.04938259259259258,57.2344248148148,0)" xlink:href="#ay"/><use transform="matrix(0.04938259259259258,0,0,0.04938259259259258,73.03685444444443,0)" xlink:href="#am"/><use transform="matrix(0.04938259259259258,0,0,0.04938259259259258,82.91337296296294,0)" xlink:href="#az"/><use transform="matrix(0.04938259259259258,0,0,0.04938259259259258,87.8516322222222,0)" xlink:href="#aA"/><use transform="matrix(0.04938259259259258,0,0,0.04938259259259258,92.78989148148145,0)" xlink:href="#av"/></g><path d="M76-40C78 24 84 88 6 75V52C86 64 9-79 80-94c-40-6-34-59-34-106 1-29-11-41-40-38v-23c44-4 70 10 70 52 0 47-12 108 38 105v22c-26 1-39 14-38 42" id="aB"/><g id="x"><use transform="matrix(0.04938259259259258,0,0,0.04938259259259258,0,0)" xlink:href="#an"/><use transform="matrix(0.04938259259259258,0,0,0.04938259259259258,9.876518518518516,0)" xlink:href="#aA"/><use transform="matrix(0.04938259259259258,0,0,0.04938259259259258,14.814777777777774,0)" xlink:href="#am"/><use transform="matrix(0.04938259259259258,0,0,0.04938259259259258,24.69129629629629,0)" xlink:href="#az"/><use transform="matrix(0.04938259259259258,0,0,0.04938259259259258,29.629555555555548,0)" xlink:href="#ay"/><use transform="matrix(0.04938259259259258,0,0,0.04938259259259258,45.43198518518518,0)" xlink:href="#aw"/><use transform="matrix(0.04938259259259258,0,0,0.04938259259259258,55.30850370370369,0)" xlink:href="#aB"/></g><path fill="#333" d="M76-40C78 24 84 88 6 75V52C86 64 9-79 80-94c-40-6-34-59-34-106 1-29-11-41-40-38v-23c44-4 70 10 70 52 0 47-12 108 38 105v22c-26 1-39 14-38 42" id="aC"/><use transform="matrix(0.05,0,0,0.05,0,0)" xlink:href="#aC" id="y"/></defs></g></svg>